<svg width="40" height="40" viewBox="0 0 40 40" fill="none" xmlns="http://www.w3.org/2000/svg">
<circle cx="20" cy="20" r="20" fill="#F2F2F7"/>
<path d="M30.5508 28.7031C29.0635 26.1318 26.7715 24.2881 24.0967 23.414C25.4198 22.6264 26.4477 21.4262 27.0227 19.9978C27.5976 18.5694 27.6878 16.9918 27.2794 15.5072C26.8709 14.0225 25.9864 12.7131 24.7617 11.7798C23.537 10.8465 22.0398 10.3411 20.5 10.3411C18.9602 10.3411 17.463 10.8465 16.2383 11.7798C15.0136 12.7131 14.1291 14.0225 13.7206 15.5072C13.3122 16.9918 13.4024 18.5694 13.9773 19.9978C14.5523 21.4262 15.5802 22.6264 16.9033 23.414C14.2285 24.2871 11.9365 26.1308 10.4492 28.7031C10.3947 28.792 10.3585 28.891 10.3428 28.9941C10.3271 29.0973 10.3323 29.2025 10.3579 29.3036C10.3836 29.4048 10.4292 29.4997 10.4922 29.5829C10.5551 29.6661 10.6341 29.7359 10.7244 29.788C10.8148 29.8402 10.9147 29.8738 11.0182 29.8867C11.1217 29.8997 11.2268 29.8918 11.3272 29.8635C11.4276 29.8352 11.5213 29.787 11.6028 29.7219C11.6843 29.6568 11.752 29.576 11.8018 29.4843C13.6416 26.3047 16.8936 24.4062 20.5 24.4062C24.1065 24.4062 27.3584 26.3047 29.1982 29.4843C29.248 29.576 29.3157 29.6568 29.3972 29.7219C29.4787 29.787 29.5724 29.8352 29.6728 29.8635C29.7732 29.8918 29.8783 29.8997 29.9818 29.8867C30.0854 29.8738 30.1852 29.8402 30.2756 29.788C30.3659 29.7359 30.4449 29.6661 30.5078 29.5829C30.5708 29.4997 30.6164 29.4048 30.6421 29.3036C30.6677 29.2025 30.6729 29.0973 30.6572 28.9941C30.6415 28.891 30.6053 28.792 30.5508 28.7031ZM15.0313 17.375C15.0313 16.2934 15.352 15.236 15.9529 14.3367C16.5538 13.4374 17.4079 12.7364 18.4072 12.3225C19.4065 11.9086 20.5061 11.8003 21.5669 12.0113C22.6277 12.2223 23.6022 12.7432 24.367 13.508C25.1318 14.2728 25.6527 15.2472 25.8637 16.3081C26.0747 17.3689 25.9664 18.4685 25.5525 19.4678C25.1386 20.4671 24.4376 21.3212 23.5383 21.9221C22.6389 22.523 21.5816 22.8437 20.5 22.8437C19.0501 22.8422 17.66 22.2655 16.6347 21.2402C15.6095 20.215 15.0328 18.8249 15.0313 17.375Z" fill="#25272D"/>
</svg>
