<svg width="24" height="24" viewBox="0 0 24 24" fill="none" xmlns="http://www.w3.org/2000/svg">
<g clip-path="url(#clip0_1541_16947)">
<path d="M10 11.3334H12V12.6667H10V11.3334Z" fill="black"/>
<path d="M17.6333 9.44662C16.4509 7.51182 14.8379 5.87603 12.9199 4.66662C12.0339 4.10504 11.0238 3.76891 9.97792 3.68757C8.93204 3.60622 7.88216 3.78213 6.91992 4.19995C6.07826 4.59695 5.34588 5.19286 4.78604 5.93622C4.22619 6.67958 3.85571 7.54805 3.70659 8.46662C3.65325 8.77995 3.61325 9.07995 3.57325 9.37328C2.94908 9.47445 2.38117 9.79412 1.97087 10.2752C1.56057 10.7564 1.33459 11.3676 1.33325 11.9999V16.0866C1.33325 16.4402 1.47373 16.7794 1.72378 17.0294C1.97382 17.2795 2.31296 17.4199 2.66659 17.4199V11.9999C2.66659 11.6463 2.80706 11.3072 3.05711 11.0571C3.30716 10.8071 3.6463 10.6666 3.99992 10.6666H16.4866C17.7715 10.6684 19.0032 11.1796 19.9117 12.0881C20.8203 12.9967 21.3315 14.2284 21.3333 15.5133V15.9999H19.9999C19.7184 15.3134 19.1939 14.7545 18.5265 14.4299C17.8592 14.1054 17.0957 14.0379 16.3818 14.2404C15.6678 14.4429 15.0534 14.9011 14.6558 15.5277C14.2582 16.1542 14.1052 16.9053 14.226 17.6375C14.3468 18.3696 14.733 19.0317 15.3108 19.4973C15.8886 19.963 16.6177 20.1995 17.3588 20.1619C18.0999 20.1243 18.8013 19.8151 19.329 19.2934C19.8567 18.7717 20.1739 18.0739 20.2199 17.3333H21.3333C21.6869 17.3333 22.026 17.1928 22.2761 16.9428C22.5261 16.6927 22.6666 16.3536 22.6666 15.9999V15.5133C22.6639 14.0746 22.1599 12.6818 21.2412 11.5745C20.3226 10.4673 19.0467 9.71482 17.6333 9.44662ZM7.33325 9.33328H4.61992C4.61992 9.12662 4.67992 8.91328 4.71992 8.66662C4.8351 7.93426 5.13568 7.24353 5.59309 6.66009C6.05051 6.07666 6.64954 5.61992 7.33325 5.33328V9.33328ZM8.66659 9.33328V5.05328C9.91122 4.89166 11.1735 5.16483 12.2399 5.82662C13.6957 6.7334 14.9522 7.9264 15.9333 9.33328H8.66659ZM17.1999 18.9199C16.8703 18.9199 16.548 18.8222 16.274 18.6391C15.9999 18.4559 15.7863 18.1956 15.6601 17.8911C15.534 17.5865 15.501 17.2514 15.5653 16.9281C15.6296 16.6048 15.7883 16.3079 16.0214 16.0748C16.2545 15.8417 16.5515 15.6829 16.8748 15.6186C17.1981 15.5543 17.5332 15.5873 17.8377 15.7135C18.1423 15.8396 18.4026 16.0532 18.5857 16.3273C18.7688 16.6014 18.8666 16.9236 18.8666 17.2533C18.8666 17.6953 18.691 18.1192 18.3784 18.4318C18.0659 18.7444 17.6419 18.9199 17.1999 18.9199Z" fill="black"/>
<path d="M9.44675 16C9.16519 15.3134 8.64069 14.7545 7.97334 14.43C7.30599 14.1054 6.54251 14.038 5.82858 14.2404C5.11466 14.4429 4.50027 14.9012 4.10266 15.5277C3.70505 16.1543 3.55206 16.9053 3.67287 17.6375C3.79368 18.3697 4.17983 19.0318 4.75766 19.4974C5.33548 19.963 6.06451 20.1996 6.80564 20.162C7.54676 20.1244 8.2481 19.8152 8.77582 19.2935C9.30353 18.7717 9.62068 18.074 9.66675 17.3333H13.2001V17.1667C13.1869 16.7733 13.2318 16.3802 13.3334 16H9.44675ZM6.66675 18.92C6.33712 18.92 6.01488 18.8223 5.7408 18.6391C5.46672 18.456 5.2531 18.1957 5.12695 17.8911C5.00081 17.5866 4.9678 17.2515 5.03211 16.9282C5.09642 16.6049 5.25515 16.3079 5.48824 16.0748C5.72133 15.8417 6.0183 15.683 6.3416 15.6187C6.6649 15.5544 7.00001 15.5874 7.30456 15.7135C7.6091 15.8397 7.8694 16.0533 8.05254 16.3274C8.23567 16.6015 8.33342 16.9237 8.33342 17.2533C8.33342 17.6954 8.15782 18.1193 7.84526 18.4318C7.5327 18.7444 7.10878 18.92 6.66675 18.92Z" fill="black"/>
</g>
<defs>
<clipPath id="clip0_1541_16947">
<rect width="24" height="24" fill="white"/>
</clipPath>
</defs>
</svg>
