<svg width="24" height="24" viewBox="0 0 24 24" fill="none" xmlns="http://www.w3.org/2000/svg">
<path fill-rule="evenodd" clip-rule="evenodd" d="M13.7847 13.7847L16.6365 7.76815L17.002 6.99792L10.2152 10.2145L6.99792 17.0023L13.7847 13.7851V13.7847ZM12.0006 10.9577C12.2866 10.9577 12.5465 11.0737 12.7373 11.2636C12.9262 11.4524 13.0423 11.7133 13.0423 11.9993C13.0423 12.2852 12.9252 12.5478 12.7373 12.736C12.5495 12.9242 12.2876 13.0419 12.0006 13.0419C11.7137 13.0419 11.4527 12.9248 11.2629 12.735C11.0747 12.5461 10.958 12.2859 10.958 11.9993C10.958 11.7126 11.0751 11.4514 11.2629 11.2626C11.4517 11.0737 11.713 10.9577 12.0006 10.9577Z" fill="#3C4049"/>
<circle cx="11.9998" cy="11.9998" r="10.012" stroke="#3C4049" stroke-width="1.33493"/>
<path d="M13.2083 3.88281V7.11901H12.6173L11.2094 5.08216H11.1857V7.11901H10.5015V3.88281H11.1019L12.4988 5.91808H12.5272V3.88281H13.2083Z" fill="#3C4049"/>
<path d="M17.8275 13.8788V10.6426H20.0082V11.2067H18.5117V11.9778H19.896V12.5419H18.5117V13.3147H20.0145V13.8788H17.8275Z" fill="#3C4049"/>
<path d="M12.2568 17.3832C12.2442 17.2557 12.1899 17.1567 12.0941 17.0861C11.9982 17.0155 11.8681 16.9802 11.7038 16.9802C11.5921 16.9802 11.4978 16.996 11.4209 17.0276C11.344 17.0582 11.285 17.1008 11.2439 17.1556C11.2039 17.2104 11.1839 17.2726 11.1839 17.3421C11.1818 17.4 11.1939 17.4506 11.2202 17.4938C11.2476 17.537 11.285 17.5744 11.3324 17.606C11.3798 17.6365 11.4346 17.6634 11.4968 17.6866C11.5589 17.7087 11.6253 17.7276 11.6959 17.7434L11.9866 17.813C12.1278 17.8446 12.2574 17.8867 12.3753 17.9394C12.4933 17.9921 12.5955 18.0569 12.6819 18.1338C12.7683 18.2107 12.8352 18.3013 12.8826 18.4055C12.931 18.5098 12.9558 18.6294 12.9569 18.7642C12.9558 18.9623 12.9052 19.134 12.8052 19.2794C12.7061 19.4237 12.5629 19.5359 12.3753 19.616C12.1889 19.695 11.964 19.7345 11.7006 19.7345C11.4394 19.7345 11.2118 19.6944 11.018 19.6144C10.8252 19.5343 10.6746 19.4158 10.5661 19.2588C10.4586 19.1008 10.4022 18.9054 10.397 18.6726H11.0591C11.0664 18.7811 11.0975 18.8717 11.1523 18.9444C11.2081 19.016 11.2824 19.0703 11.3751 19.1071C11.4689 19.143 11.5747 19.1609 11.6927 19.1609C11.8086 19.1609 11.9092 19.144 11.9945 19.1103C12.0809 19.0766 12.1478 19.0297 12.1952 18.9697C12.2426 18.9096 12.2663 18.8406 12.2663 18.7627C12.2663 18.69 12.2447 18.6289 12.2015 18.5794C12.1594 18.5298 12.0972 18.4877 12.0151 18.4529C11.934 18.4182 11.8344 18.3866 11.7164 18.3581L11.364 18.2696C11.0912 18.2033 10.8758 18.0995 10.7177 17.9584C10.5597 17.8172 10.4812 17.627 10.4823 17.3879C10.4812 17.192 10.5334 17.0208 10.6387 16.8744C10.7451 16.7279 10.891 16.6136 11.0764 16.5315C11.2619 16.4493 11.4725 16.4082 11.7085 16.4082C11.9487 16.4082 12.1583 16.4493 12.3374 16.5315C12.5176 16.6136 12.6577 16.7279 12.7578 16.8744C12.8578 17.0208 12.9094 17.1904 12.9126 17.3832H12.2568Z" fill="#3C4049"/>
<path d="M3.90364 13.8788L2.97766 10.6426H3.72508L4.26076 12.8912H4.28762L4.87861 10.6426H5.51858L6.10798 12.8959H6.13643L6.67211 10.6426H7.41953L6.49355 13.8788H5.82671L5.21045 11.7629H5.18516L4.57048 13.8788H3.90364Z" fill="#3C4049"/>
</svg>
