<svg width="24" height="24" viewBox="0 0 24 24" fill="none" xmlns="http://www.w3.org/2000/svg">
<path d="M4.63165 21.4235C4.63165 21.6916 4.41351 21.9098 4.14543 21.9098H2.0482C1.4704 21.9098 1 21.4394 1 20.8616V13.2794C1 12.7016 1.4704 12.2312 2.0482 12.2312H4.14543C4.41351 12.2312 4.63165 12.4493 4.63165 12.7174V21.4235Z"/>
<path d="M22.4295 17.0639L20.1166 19.286C19.5314 19.8488 18.8029 20.2418 18.0119 20.4241L13.7575 21.4007C13.0665 21.5581 12.3397 21.5506 11.6536 21.3783L6.13123 19.9837V14.5554L7.73058 13.4681C8.73299 12.7862 9.98933 12.5381 11.1766 12.787L14.9489 13.5796C15.5226 13.7004 15.9388 14.2132 15.9388 14.8002C15.9388 15.4887 15.3794 16.0482 14.6917 16.0482H12.0899C11.6761 16.0482 11.3406 16.3837 11.3406 16.7975C11.3406 17.2113 11.6761 17.5468 12.0899 17.5468H16.0945C16.629 17.5468 17.1477 17.3928 17.5948 17.1014L20.7894 15.0191C21.2956 14.6894 21.9641 14.7685 22.3787 15.209L22.472 15.3072C22.9415 15.8026 22.9216 16.591 22.4295 17.0639Z"/>
<path d="M12 10.8571V5.71428C12 5.53333 12.0399 5.3619 12.1198 5.2C12.1997 5.03809 12.3098 4.90476 12.45 4.8L15.825 2.22857C16.0219 2.07619 16.2469 2 16.5 2C16.7531 2 16.9781 2.07619 17.175 2.22857L20.55 4.8C20.6906 4.90476 20.8009 5.03809 20.8807 5.2C20.9606 5.3619 21.0004 5.53333 21 5.71428V10.8571C21 11.1714 20.8897 11.4406 20.6692 11.6646C20.4487 11.8886 20.184 12.0004 19.875 12H18.1875C18.0281 12 17.8946 11.9451 17.787 11.8354C17.6794 11.7257 17.6254 11.5901 17.625 11.4286V8.57143C17.625 8.40952 17.571 8.2739 17.463 8.16457C17.355 8.05524 17.2215 8.00038 17.0625 8H15.9375C15.7781 8 15.6446 8.05486 15.537 8.16457C15.4294 8.27428 15.3754 8.4099 15.375 8.57143V11.4286C15.375 11.5905 15.321 11.7263 15.213 11.836C15.105 11.9457 14.9715 12.0004 14.8125 12H13.125C12.8156 12 12.5509 11.8882 12.3307 11.6646C12.1106 11.4409 12.0004 11.1718 12 10.8571Z"/>
</svg>
