<svg width="50" height="51" viewBox="0 0 50 51" fill="none" xmlns="http://www.w3.org/2000/svg">
<g opacity="0.4">
<path opacity="0.5" d="M6.25 20.9172C6.25 13.0604 6.25 9.13204 8.69078 6.69127C11.1316 4.25049 15.0599 4.25049 22.9167 4.25049H27.0833C34.9401 4.25049 38.8684 4.25049 41.3092 6.69127C43.75 9.13204 43.75 13.0604 43.75 20.9172V29.2505C43.75 37.1072 43.75 41.0356 41.3092 43.4764C38.8684 45.9172 34.9401 45.9172 27.0833 45.9172H22.9167C15.0599 45.9172 11.1316 45.9172 8.69078 43.4764C6.25 41.0356 6.25 37.1072 6.25 29.2505V20.9172Z" stroke="#926BFA" stroke-width="3.5"/>
<path d="M16.6667 25.0835H33.3334" stroke="#926BFA" stroke-width="3.5" stroke-linecap="round"/>
<path d="M16.6665 16.7505H33.3332" stroke="#926BFA" stroke-width="3.5" stroke-linecap="round"/>
<path d="M16.6665 33.4165H27.0832" stroke="#926BFA" stroke-width="3.5" stroke-linecap="round"/>
</g>
</svg>
