<?xml version="1.0" standalone="no"?>
<!DOCTYPE svg PUBLIC "-//W3C//DTD SVG 20010904//EN"
 "http://www.w3.org/TR/2001/REC-SVG-20010904/DTD/svg10.dtd">
<svg version="1.0" xmlns="http://www.w3.org/2000/svg"
 width="512.000000pt" height="512.000000pt" viewBox="0 0 512.000000 512.000000"
 preserveAspectRatio="xMidYMid meet">

<g transform="translate(0.000000,512.000000) scale(0.100000,-0.100000)"
stroke="none">
<path d="M161 5103 c-59 -21 -124 -87 -144 -148 -16 -45 -17 -237 -17 -2395 0
-2634 -7 -2404 75 -2485 81 -82 -84 -75 1965 -73 l1825 3 185 109 c270 160
379 237 508 360 231 223 375 450 472 745 80 243 85 293 85 826 0 456 -1 471
-21 505 -28 49 -78 80 -128 80 -63 0 -168 26 -223 53 -72 37 -146 109 -199
193 -69 111 -63 110 -346 106 l-238 -4 -2 974 c-3 924 -4 975 -22 1016 -23 53
-101 124 -154 140 -30 9 -469 12 -1808 11 -1575 0 -1774 -2 -1813 -16z m3499
-1202 l0 -920 -257 -3 c-301 -4 -295 -1 -362 -117 -86 -147 -214 -227 -397
-246 -71 -8 -116 -32 -145 -77 -20 -32 -20 -43 -16 -483 4 -412 6 -461 26
-575 46 -256 161 -532 309 -740 77 -109 275 -313 376 -389 l69 -51 -1482 0
-1481 0 0 2260 0 2260 1680 0 1680 0 0 -919z m692 -1277 c96 -120 253 -224
400 -264 l63 -17 3 -324 c3 -446 -16 -583 -118 -827 -98 -233 -282 -469 -485
-620 -73 -54 -366 -231 -395 -239 -19 -5 -299 154 -415 236 -102 72 -264 234
-338 338 -83 116 -160 269 -206 408 -65 198 -73 264 -78 661 l-5 352 58 17
c151 43 311 150 398 266 l48 64 502 5 c275 3 504 6 508 8 4 1 31 -28 60 -64z"/>
<path d="M780 4158 c-52 -36 -72 -69 -72 -122 0 -53 23 -99 65 -130 l28 -21
1157 -3 1157 -2 44 22 c58 30 84 76 78 141 -5 57 -30 95 -78 119 -32 17 -109
18 -1190 18 l-1156 0 -33 -22z"/>
<path d="M780 3558 c-52 -36 -72 -69 -72 -122 0 -53 23 -99 65 -130 28 -21 36
-21 645 -24 l617 -2 44 22 c108 55 108 207 1 260 -32 17 -84 18 -651 18 l-616
0 -33 -22z"/>
<path d="M780 2958 c-52 -36 -72 -69 -72 -122 0 -53 23 -99 65 -130 28 -21 36
-21 645 -24 l617 -2 44 22 c108 55 108 207 1 260 -32 17 -84 18 -651 18 l-616
0 -33 -22z"/>
<path d="M819 2381 c-14 -5 -38 -16 -53 -26 -84 -55 -75 -201 16 -249 30 -16
83 -17 665 -14 l631 3 27 25 c80 74 72 177 -18 244 -28 21 -37 21 -635 23
-334 1 -619 -2 -633 -6z"/>
<path d="M825 1881 c-101 -25 -150 -138 -96 -224 44 -71 14 -68 718 -65 l631
3 27 25 c80 74 72 177 -18 244 -28 21 -37 21 -630 23 -331 1 -615 -2 -632 -6z"/>
<path d="M825 1281 c-101 -25 -150 -138 -96 -224 44 -71 14 -68 718 -65 l631
3 27 25 c80 74 72 177 -18 244 -28 21 -37 21 -630 23 -331 1 -615 -2 -632 -6z"/>
<path d="M4185 1966 c-17 -7 -107 -93 -200 -192 -94 -98 -195 -205 -225 -236
l-55 -58 -84 105 c-94 116 -137 144 -206 131 -48 -9 -102 -59 -116 -107 -20
-66 -2 -101 152 -291 173 -214 214 -241 303 -204 37 15 603 610 623 654 32 72
3 154 -67 190 -50 25 -81 27 -125 8z"/>
</g>
</svg>
