<svg width="16" height="16" viewBox="0 0 16 16" fill="none" xmlns="http://www.w3.org/2000/svg">
<path d="M8 8.6665C9.10457 8.6665 10 7.77107 10 6.6665C10 5.56193 9.10457 4.6665 8 4.6665C6.89543 4.6665 6 5.56193 6 6.6665C6 7.77107 6.89543 8.6665 8 8.6665Z" stroke="#656C7B" stroke-width="1.5" stroke-linecap="round" stroke-linejoin="round"/>
<path d="M8 1.33325C6.58551 1.33325 5.22896 1.89516 4.22876 2.89535C3.22857 3.89554 2.66666 5.2521 2.66666 6.66659C2.66666 7.92792 2.93466 8.75325 3.66666 9.66659L8 14.6666L12.3333 9.66659C13.0653 8.75325 13.3333 7.92792 13.3333 6.66659C13.3333 5.2521 12.7714 3.89554 11.7712 2.89535C10.771 1.89516 9.41449 1.33325 8 1.33325V1.33325Z" stroke="#656C7B" stroke-width="1.5" stroke-linecap="round" stroke-linejoin="round"/>
</svg>
