<?xml version="1.0" standalone="no"?>
<!DOCTYPE svg PUBLIC "-//W3C//DTD SVG 20010904//EN"
 "http://www.w3.org/TR/2001/REC-SVG-20010904/DTD/svg10.dtd">
<svg version="1.0" xmlns="http://www.w3.org/2000/svg"
 width="512.000000pt" height="512.000000pt" viewBox="0 0 512.000000 512.000000"
 preserveAspectRatio="xMidYMid meet">

<g transform="translate(0.000000,512.000000) scale(0.100000,-0.100000)"
stroke="none">
<path d="M2105 5104 c-230 -41 -418 -138 -588 -303 -450 -438 -450 -1148 1
-1583 165 -159 339 -251 567 -299 81 -18 322 -17 410 0 232 46 437 160 604
337 401 423 398 1092 -6 1514 -102 107 -186 170 -308 230 -217 107 -457 143
-680 104z m407 -104 c337 -72 624 -328 737 -657 126 -370 32 -775 -243 -1049
-94 -94 -176 -151 -290 -204 -393 -183 -860 -95 -1158 218 -393 413 -376 1053
38 1442 246 232 578 322 916 250z"/>
<path d="M2035 2764 c-806 -123 -1447 -764 -1620 -1619 -46 -227 -34 -321 56
-420 30 -32 73 -65 107 -82 l57 -28 1022 -3 1022 -2 36 -65 c209 -375 653
-594 1081 -534 464 64 831 413 919 873 18 93 20 290 5 380 -79 444 -424 798
-860 880 -45 9 -107 16 -136 16 -54 0 -55 1 -135 75 -328 307 -660 474 -1052
530 -127 18 -382 18 -502 -1z m540 -99 c330 -58 643 -214 894 -447 l61 -57
-37 -6 c-21 -4 -78 -17 -128 -31 -406 -111 -707 -445 -779 -863 -27 -156 -16
-340 29 -485 8 -27 15 -55 15 -63 0 -11 -156 -13 -982 -11 -1113 3 -1030 -3
-1108 85 -66 75 -73 133 -39 310 27 140 61 264 106 377 264 670 824 1122 1493
1205 103 13 366 6 475 -14z m1340 -629 c451 -133 742 -533 722 -996 -10 -249
-101 -459 -276 -643 -206 -216 -511 -329 -802 -297 -132 15 -225 42 -344 100
-592 289 -735 1080 -281 1557 150 159 330 258 541 299 114 22 329 12 440 -20z"/>
<path d="M3140 1505 l0 -136 43 3 42 3 3 88 3 87 424 0 425 0 0 -89 c0 -96 3
-101 55 -92 l30 6 0 130 0 130 -512 3 -513 2 0 -135z"/>
<path d="M3609 1423 c-99 -105 -269 -315 -269 -332 0 -23 52 -64 72 -55 7 3
51 51 98 107 l85 101 3 -357 2 -357 25 -6 c14 -3 36 -3 50 0 l25 6 2 355 3
355 88 -105 c50 -60 96 -105 106 -105 21 0 61 40 61 61 -1 15 -288 360 -305
366 -6 2 -27 -14 -46 -34z"/>
</g>
</svg>
