<svg width="24" height="25" viewBox="0 0 24 25" fill="none" xmlns="http://www.w3.org/2000/svg">
<g clip-path="url(#clip0_544_5514)">
<path fill-rule="evenodd" clip-rule="evenodd" d="M7.05024 3.55025C8.36299 2.2375 10.1435 1.5 12 1.5C13.8565 1.5 15.637 2.2375 16.9497 3.55025C18.2625 4.86301 19 6.64349 19 8.5C19 11.8527 19.7171 13.9346 20.3779 15.1461C20.7097 15.7544 21.0328 16.1535 21.2572 16.3904C21.3697 16.5091 21.458 16.5878 21.5113 16.6322C21.5379 16.6544 21.5557 16.668 21.5634 16.6737C21.5646 16.6746 21.5656 16.6753 21.5663 16.6758C21.9248 16.9221 22.0834 17.3725 21.9571 17.7898C21.8294 18.2115 21.4407 18.5 21 18.5H2.99999C2.55932 18.5 2.17059 18.2115 2.04289 17.7898C1.91655 17.3725 2.07519 16.9221 2.43368 16.6758C2.43438 16.6753 2.43533 16.6746 2.43653 16.6737C2.44423 16.668 2.46209 16.6544 2.48871 16.6322C2.54192 16.5878 2.63031 16.5091 2.74278 16.3904C2.96721 16.1535 3.2903 15.7544 3.62209 15.1461C4.28292 13.9346 4.99999 11.8527 4.99999 8.5C4.99999 6.64348 5.73748 4.86301 7.05024 3.55025ZM5.14931 16.5H18.8507C18.7746 16.3753 18.6982 16.2434 18.6221 16.1039C17.7829 14.5654 17 12.1473 17 8.5C17 7.17392 16.4732 5.90215 15.5355 4.96447C14.5978 4.02678 13.3261 3.5 12 3.5C10.6739 3.5 9.40213 4.02678 8.46445 4.96447C7.52677 5.90215 6.99999 7.17392 6.99999 8.5C6.99999 12.1473 6.21705 14.5654 5.37788 16.1039C5.30178 16.2434 5.2254 16.3753 5.14931 16.5Z" fill="#25272D"/>
<path fill-rule="evenodd" clip-rule="evenodd" d="M9.76822 20.635C10.2459 20.3579 10.8579 20.5205 11.135 20.9982C11.2229 21.1498 11.3491 21.2756 11.5009 21.363C11.6527 21.4504 11.8248 21.4965 12 21.4965C12.1752 21.4965 12.3473 21.4504 12.4991 21.363C12.6509 21.2756 12.7771 21.1498 12.865 20.9982C13.1421 20.5205 13.754 20.3579 14.2318 20.635C14.7095 20.9121 14.8721 21.524 14.595 22.0018C14.3313 22.4564 13.9528 22.8337 13.4973 23.0961C13.0419 23.3584 12.5256 23.4965 12 23.4965C11.4744 23.4965 10.9581 23.3584 10.5026 23.0961C10.0472 22.8337 9.6687 22.4564 9.40499 22.0018C9.12787 21.524 9.29049 20.9121 9.76822 20.635Z" fill="#25272D"/>
<g filter="url(#filter0_dd_544_5514)">
<circle cx="17" cy="4.5" r="4" fill="#FF0F4B"/>
<circle cx="17" cy="4.5" r="4.5" stroke="#F3F5F6"/>
</g>
</g>
<defs>
<filter id="filter0_dd_544_5514" x="8" y="-2.5" width="18" height="18" filterUnits="userSpaceOnUse" color-interpolation-filters="sRGB">
<feFlood flood-opacity="0" result="BackgroundImageFix"/>
<feColorMatrix in="SourceAlpha" type="matrix" values="0 0 0 0 0 0 0 0 0 0 0 0 0 0 0 0 0 0 127 0" result="hardAlpha"/>
<feOffset dy="2"/>
<feGaussianBlur stdDeviation="2"/>
<feColorMatrix type="matrix" values="0 0 0 0 0.396078 0 0 0 0 0.423529 0 0 0 0 0.482353 0 0 0 0.15 0"/>
<feBlend mode="normal" in2="BackgroundImageFix" result="effect1_dropShadow_544_5514"/>
<feColorMatrix in="SourceAlpha" type="matrix" values="0 0 0 0 0 0 0 0 0 0 0 0 0 0 0 0 0 0 127 0" result="hardAlpha"/>
<feOffset/>
<feGaussianBlur stdDeviation="0.5"/>
<feColorMatrix type="matrix" values="0 0 0 0 0.396078 0 0 0 0 0.423529 0 0 0 0 0.482353 0 0 0 0.25 0"/>
<feBlend mode="normal" in2="effect1_dropShadow_544_5514" result="effect2_dropShadow_544_5514"/>
<feBlend mode="normal" in="SourceGraphic" in2="effect2_dropShadow_544_5514" result="shape"/>
</filter>
<clipPath id="clip0_544_5514">
<rect width="24" height="24" fill="white" transform="translate(0 0.5)"/>
</clipPath>
</defs>
</svg>
