<svg width="50" height="50" viewBox="0 0 50 50" fill="none" xmlns="http://www.w3.org/2000/svg">
<g opacity="0.4">
<path opacity="0.5" d="M36.8056 4.16748H13.1944C12.5496 4.16748 12.2271 4.16748 11.9553 4.19243C8.93373 4.46979 6.53813 6.9832 6.27378 10.1533C6.25 10.4386 6.25 10.7769 6.25 11.4535V42.2087C6.25 44.0265 8.45564 44.7978 9.49519 43.3436C10.2163 42.3348 11.6587 42.3348 12.3798 43.3436L13.2812 44.6046C14.4531 46.244 16.7969 46.244 17.9687 44.6046C19.1406 42.9653 21.4844 42.9653 22.6562 44.6046C23.8281 46.244 26.1719 46.244 27.3437 44.6046C28.5156 42.9653 30.8594 42.9653 32.0312 44.6046C33.2031 46.244 35.5469 46.244 36.7187 44.6046L37.6202 43.3436C38.3413 42.3348 39.7837 42.3348 40.5048 43.3436C41.5444 44.7979 43.75 44.0265 43.75 42.2087V11.4535C43.75 10.7769 43.75 10.4386 43.7262 10.1533C43.4619 6.9832 41.0663 4.46979 38.0447 4.19243C37.7729 4.16748 37.4504 4.16748 36.8056 4.16748Z" stroke="#EB9F0C" stroke-width="2.5"/>
<path d="M15.625 32.2925H34.375" stroke="#EB9F0C" stroke-width="2.5" stroke-linecap="round"/>
<path d="M29.1669 16.6675L20.8336 25.0008M20.8335 16.6675L29.1668 25.0008" stroke="#EB9F0C" stroke-width="2.5" stroke-linecap="round"/>
</g>
</svg>
