<svg width="22" height="22" viewBox="0 0 22 22" fill="none" xmlns="http://www.w3.org/2000/svg">
<path d="M17.4167 8.25V4.58333H13.75V2.75H19.25V8.25H17.4167ZM2.75 19.25V13.75H4.58333V17.4167H8.25V19.25H2.75ZM2.75 11.9167V10.0833H4.58333V11.9167H2.75ZM2.75 8.25V6.41667H4.58333V8.25H2.75ZM2.75 4.58333V2.75H4.58333V4.58333H2.75ZM6.41667 4.58333V2.75H8.25V4.58333H6.41667ZM10.0833 19.25V17.4167H11.9167V19.25H10.0833ZM10.0833 4.58333V2.75H11.9167V4.58333H10.0833ZM13.75 19.25V17.4167H15.5833V19.25H13.75ZM17.4167 19.25V17.4167H19.25V19.25H17.4167ZM17.4167 15.5833V13.75H19.25V15.5833H17.4167ZM17.4167 11.9167V10.0833H19.25V11.9167H17.4167Z" fill="#3C4049"/>
</svg>
