<?xml version="1.0" standalone="no"?>
<!DOCTYPE svg PUBLIC "-//W3C//DTD SVG 20010904//EN"
 "http://www.w3.org/TR/2001/REC-SVG-20010904/DTD/svg10.dtd">
<svg version="1.0" xmlns="http://www.w3.org/2000/svg"
 width="512.000000pt" height="512.000000pt" viewBox="0 0 512.000000 512.000000"
 preserveAspectRatio="xMidYMid meet">

<g transform="translate(0.000000,512.000000) scale(0.100000,-0.100000)"
stroke="none">
<path d="M2476 5105 c-43 -17 -1663 -1120 -1714 -1169 -56 -51 -76 -101 -76
-181 0 -78 20 -130 73 -182 50 -50 97 -68 181 -68 63 0 83 4 123 27 l47 27 0
-255 0 -254 -47 19 c-27 10 -230 92 -453 181 -373 149 -409 162 -456 158 -64
-5 -110 -37 -135 -92 -18 -39 -19 -92 -19 -1227 l0 -1186 23 -44 c34 -64 82
-89 178 -89 144 0 207 41 285 190 l47 89 53 -24 c94 -42 89 -34 85 -123 -3
-89 13 -140 63 -199 56 -66 171 -101 267 -80 34 7 37 5 48 -21 18 -42 89 -108
143 -132 50 -22 131 -30 188 -18 34 7 36 6 62 -42 31 -56 101 -112 161 -130
36 -10 138 -16 164 -8 6 2 26 -19 44 -47 49 -71 114 -108 199 -113 78 -5 133
15 193 67 l36 32 113 -90 c123 -99 171 -121 257 -120 108 1 193 54 237 147
l29 61 45 -5 c57 -7 115 8 168 43 53 37 82 75 103 137 l18 51 58 6 c132 14
238 97 273 216 l12 41 82 -5 c67 -4 91 -1 137 16 72 27 136 84 174 152 28 50
30 62 29 149 0 52 -3 103 -5 113 -3 15 38 35 246 123 138 57 259 107 270 109
17 5 32 -17 105 -152 49 -91 101 -173 123 -194 48 -47 112 -69 202 -69 94 0
149 27 182 90 l23 44 -2 1116 -3 1117 -29 37 c-33 44 -79 66 -136 66 -36 0
-269 -83 -872 -313 l-68 -26 0 245 0 245 45 -27 c101 -59 232 -38 314 51 38
42 71 120 71 170 0 53 -33 129 -73 171 -44 45 -1646 1145 -1707 1172 -49 21
-137 25 -184 7z m929 -714 c446 -305 821 -564 835 -577 55 -52 10 -151 -64
-142 -21 3 -288 180 -796 528 -420 288 -777 528 -792 534 -20 7 -36 7 -55 0
-16 -6 -374 -248 -797 -537 -559 -383 -777 -527 -797 -527 -15 0 -40 11 -55
24 -35 29 -39 86 -8 115 10 11 388 272 839 580 699 479 824 561 850 558 20 -2
300 -188 840 -556z m-194 -282 l629 -431 0 -348 c0 -340 0 -347 -21 -366 -38
-34 -61 -93 -62 -157 0 -53 6 -71 55 -167 l56 -108 -131 -48 c-109 -41 -143
-49 -197 -49 -83 1 -91 5 -344 190 l-205 150 0 241 c-1 257 -6 289 -50 337
-52 57 -55 57 -381 57 -326 0 -329 0 -381 -57 -45 -49 -49 -77 -49 -383 l0
-288 -42 -70 -43 -70 -62 -6 c-35 -4 -118 -18 -184 -31 -146 -30 -199 -31
-305 -5 -75 18 -194 63 -194 74 0 2 13 33 30 68 49 103 40 209 -25 294 l-25
33 0 354 0 355 637 436 c351 240 644 434 651 431 7 -3 297 -199 643 -436z
m1739 -1929 l0 -1070 -44 0 c-32 0 -52 6 -70 22 -35 31 -906 1645 -906 1679 0
14 8 33 18 42 12 11 849 343 1000 396 1 1 2 -480 2 -1069z m-4275 858 c259
-104 480 -199 493 -211 14 -14 22 -32 22 -55 0 -45 -871 -1783 -908 -1813 -16
-12 -40 -19 -68 -19 l-44 0 0 1151 c0 1092 1 1151 18 1144 9 -3 228 -92 487
-197z m2145 32 c0 -93 -1 -170 -2 -170 -2 0 -28 10 -58 21 -69 27 -199 36
-271 19 -30 -6 -84 -27 -121 -46 l-68 -33 0 189 0 190 260 0 260 0 0 -170z
m-105 -324 c28 -12 175 -114 327 -225 153 -111 302 -213 332 -227 128 -59 219
-53 431 27 72 27 136 49 141 49 10 0 476 -851 470 -857 -2 -2 -129 -54 -283
-117 l-279 -113 -195 171 c-209 183 -959 841 -1023 896 -47 42 -93 45 -131 10
-34 -32 -33 -79 1 -119 l26 -31 -156 -174 c-184 -205 -214 -233 -260 -242 -74
-13 -152 54 -150 129 2 50 208 511 274 612 56 86 175 198 231 218 70 25 184
21 244 -7z m-1405 -367 c121 -44 245 -71 320 -70 36 0 121 12 189 26 68 14
127 25 131 25 4 0 -28 -82 -73 -182 -76 -173 -80 -185 -80 -254 0 -90 33 -165
99 -223 104 -91 281 -98 388 -14 12 10 102 107 200 216 98 108 180 197 181
197 11 0 1104 -977 1122 -1003 30 -41 31 -118 4 -163 -21 -34 -93 -74 -132
-74 -48 1 -102 38 -286 200 -332 293 -353 310 -385 310 -38 0 -88 -48 -88 -84
0 -35 30 -66 250 -259 101 -89 195 -177 207 -196 71 -105 -36 -239 -164 -206
-18 4 -100 78 -229 206 -178 177 -204 199 -233 199 -23 0 -41 -9 -62 -29 -55
-55 -49 -64 160 -275 105 -105 195 -204 200 -219 23 -60 -22 -122 -89 -122
-36 0 -47 8 -148 108 -99 97 -112 107 -146 107 -49 0 -86 -36 -86 -84 0 -30
11 -47 76 -117 75 -79 76 -82 71 -123 -9 -66 -78 -111 -137 -89 -15 6 -79 50
-142 99 l-115 88 35 81 c43 97 50 156 28 222 -34 101 -122 169 -226 175 l-52
4 -19 50 c-42 112 -143 184 -265 190 l-67 3 -17 50 c-43 127 -148 201 -287
201 -69 0 -118 -16 -170 -56 l-33 -25 -33 27 c-53 45 -105 64 -177 64 -113 0
-196 -54 -251 -162 -16 -32 -31 -58 -34 -58 -3 0 -34 14 -69 32 l-64 31 301
604 c166 332 304 603 308 603 3 0 43 -14 89 -31z m-215 -1212 c17 -14 28 -36
32 -63 4 -35 -3 -56 -56 -161 -64 -129 -86 -153 -139 -153 -46 0 -80 26 -93
70 -11 36 -8 45 42 155 67 145 92 175 147 175 28 0 49 -7 67 -23z m430 -9 c30
-23 55 -74 55 -110 0 -19 -49 -130 -155 -352 -60 -125 -245 -89 -245 49 0 49
150 370 190 408 40 35 113 38 155 5z m334 -246 c45 -24 74 -76 68 -122 -5 -39
-110 -275 -136 -304 -9 -10 -28 -24 -43 -32 -81 -42 -178 24 -178 120 0 36
105 273 138 309 20 23 68 46 97 47 11 0 36 -8 54 -18z m316 -238 c18 -7 45
-54 45 -79 0 -9 -28 -77 -62 -151 -63 -138 -85 -164 -136 -164 -32 0 -82 54
-82 88 0 35 113 279 138 298 18 14 70 18 97 8z"/>
<path d="M2494 4260 c-102 -21 -203 -102 -247 -198 -17 -37 -22 -66 -22 -137
0 -78 4 -97 28 -146 66 -136 219 -215 364 -188 110 21 202 90 250 188 24 49
28 68 28 146 0 108 -20 159 -89 233 -77 82 -206 124 -312 102z m109 -171 c83
-23 134 -99 124 -185 -9 -84 -80 -146 -167 -146 -87 0 -158 62 -167 146 -10
84 34 153 113 181 48 17 50 17 97 4z"/>
</g>
</svg>
