<svg width="32" height="32" viewBox="0 0 32 32" fill="none" xmlns="http://www.w3.org/2000/svg">
<circle cx="15.9999" cy="15.9999" r="14.6667" fill="#B7D1FF"/>
<path fill-rule="evenodd" clip-rule="evenodd" d="M21.6002 9.6H22.4002C22.8002 9.6 23.2002 10 23.2002 10.4V14.24C22.0802 13.36 20.7202 12.8 19.2002 12.8C15.6802 12.8 12.8002 15.68 12.8002 19.2C12.8002 20.32 13.1202 21.44 13.6802 22.4H8.80024C8.40024 22.4 8.00024 22.08 8.00024 21.6V10.4C8.00024 9.92 8.40024 9.6 8.80024 9.6H10.4002V8.8C10.4002 8.32 10.7202 8 11.2002 8C11.6802 8 12.0002 8.32 12.0002 8.8V9.6H20.0002V8.8C20.0002 8.32 20.3202 8 20.8002 8C21.2802 8 21.6002 8.32 21.6002 8.8V9.6ZM14.4 19.2C14.4 16.56 16.56 14.4 19.2 14.4C21.84 14.4 24 16.56 24 19.2C24 21.84 21.84 24 19.2 24C16.56 24 14.4 21.84 14.4 19.2ZM18.4 19.2C18.4 19.68 18.72 20 19.2 20H20.8C21.28 20 21.6 19.68 21.6 19.2C21.6 18.72 21.28 18.4 20.8 18.4H20V16.8C20 16.32 19.68 16 19.2 16C18.72 16 18.4 16.32 18.4 16.8V19.2Z" fill="#053864"/>
</svg>
