<svg width="32" height="32" viewBox="0 0 32 32" fill="none" xmlns="http://www.w3.org/2000/svg">
<circle cx="15.9999" cy="16.0002" r="14.6667" fill="url(#paint0_radial_614_17142)"/>
<g filter="url(#filter0_d_614_17142)">
<path fill-rule="evenodd" clip-rule="evenodd" d="M8.50391 13.1134L9.7593 9.71468C10.2186 8.82672 10.9228 8.27557 11.7496 8H19.6187C20.4455 8.27557 21.1191 8.82672 21.609 9.71468L22.8644 13.1134H24.4872C24.6097 13.1134 24.7015 13.2053 24.7015 13.3278V14.0014C24.7015 14.1239 24.6097 14.2463 24.4872 14.2463H23.538C23.8136 14.5832 24.0892 14.9812 24.3647 15.5017C24.3647 17.5532 24.3953 19.6047 24.3953 21.6868C24.3953 22.2074 23.9667 22.6667 23.4155 22.6667H22.7419C22.1908 22.6667 21.7621 22.2074 21.7621 21.6868V20.4315H9.60621V21.6868C9.60621 22.2074 9.17753 22.6667 8.62639 22.6667H7.95276C7.40161 22.6667 6.97294 22.2074 6.97294 21.6868C6.97294 19.6047 7.00356 17.5532 7.00356 15.5017C7.27913 14.9812 7.55471 14.5832 7.83028 14.2463H6.88108C6.75861 14.2463 6.66675 14.1239 6.66675 14.0014V13.3278C6.66675 13.2053 6.75861 13.1134 6.88108 13.1134H8.50391ZM11.9027 9.34725C11.3821 9.43911 11.0453 9.77592 10.8616 10.2046C10.4942 11.215 10.0961 12.3786 9.7593 13.389H21.609C21.2722 12.3786 20.8435 11.215 20.5067 10.2046C20.2924 9.77592 19.9862 9.43911 19.4656 9.34725H11.9027ZM21.2722 15.5936C20.6598 15.5936 20.1699 16.0835 20.1699 16.6959C20.1699 17.3083 20.6598 17.7982 21.2722 17.7982C21.8539 17.7982 22.3439 17.3083 22.3439 16.6959C22.3439 16.0835 21.8539 15.5936 21.2722 15.5936ZM10.0961 15.5936C10.7085 15.5936 11.1984 16.0835 11.1984 16.6959C11.1984 17.3083 10.7085 17.7982 10.0961 17.7982C9.51435 17.7982 9.02444 17.3083 9.02444 16.6959C9.02444 16.0835 9.51435 15.5936 10.0961 15.5936Z" fill="white"/>
</g>
<defs>
<filter id="filter0_d_614_17142" x="6.66675" y="8" width="18.0349" height="15.6665" filterUnits="userSpaceOnUse" color-interpolation-filters="sRGB">
<feFlood flood-opacity="0" result="BackgroundImageFix"/>
<feColorMatrix in="SourceAlpha" type="matrix" values="0 0 0 0 0 0 0 0 0 0 0 0 0 0 0 0 0 0 127 0" result="hardAlpha"/>
<feOffset dy="1"/>
<feComposite in2="hardAlpha" operator="out"/>
<feColorMatrix type="matrix" values="0 0 0 0 0 0 0 0 0 0 0 0 0 0 0 0 0 0 0.25 0"/>
<feBlend mode="normal" in2="BackgroundImageFix" result="effect1_dropShadow_614_17142"/>
<feBlend mode="normal" in="SourceGraphic" in2="effect1_dropShadow_614_17142" result="shape"/>
</filter>
<radialGradient id="paint0_radial_614_17142" cx="0" cy="0" r="1" gradientUnits="userSpaceOnUse" gradientTransform="translate(15.9999 1.3335) rotate(90) scale(31.3333)">
<stop stop-color="#0195FF"/>
<stop offset="1" stop-color="#0061AF"/>
</radialGradient>
</defs>
</svg>
