<svg width="32" height="32" viewBox="0 0 32 32" fill="none" xmlns="http://www.w3.org/2000/svg">
<circle cx="15.9999" cy="15.9999" r="14.6667" fill="#74E2C7"/>
<path d="M20.3718 12.2597C19.6142 12.2562 18.8887 11.9538 18.3531 11.4181C17.8174 10.8825 17.5149 10.1569 17.5115 9.39942V6.66675H11.4191C10.866 6.66733 10.3359 6.88727 9.94481 7.27831C9.55378 7.66935 9.33383 8.19954 9.33325 8.75256V23.2476C9.33383 23.8006 9.55378 24.3308 9.94481 24.7219C10.3359 25.1129 10.866 25.3328 11.4191 25.3334H21.0164C21.5694 25.3328 22.0996 25.1129 22.4907 24.7219C22.8817 24.3308 23.1016 23.8006 23.1022 23.2476V12.2597H20.3718ZM19.4631 22.2949H12.9724C12.7682 22.2949 12.5723 22.2138 12.4279 22.0694C12.2835 21.9249 12.2023 21.7291 12.2023 21.5248C12.2023 21.3206 12.2835 21.1247 12.4279 20.9803C12.5723 20.8359 12.7682 20.7548 12.9724 20.7548H19.4631C19.6673 20.7548 19.8632 20.8359 20.0076 20.9803C20.152 21.1247 20.2331 21.3206 20.2331 21.5248C20.2331 21.7291 20.152 21.9249 20.0076 22.0694C19.8632 22.2138 19.6673 22.2949 19.4631 22.2949ZM19.4631 19.1816H12.9724C12.7682 19.1816 12.5723 19.1005 12.4279 18.956C12.2835 18.8116 12.2023 18.6158 12.2023 18.4115C12.2023 18.2073 12.2835 18.0114 12.4279 17.867C12.5723 17.7226 12.7682 17.6414 12.9724 17.6414H19.4631C19.6673 17.6414 19.8632 17.7226 20.0076 17.867C20.152 18.0114 20.2331 18.2073 20.2331 18.4115C20.2331 18.6158 20.152 18.8116 20.0076 18.956C19.8632 19.1005 19.6673 19.1816 19.4631 19.1816ZM19.4631 16.0661H12.9724C12.7682 16.0661 12.5723 15.985 12.4279 15.8405C12.2835 15.6961 12.2023 15.5002 12.2023 15.296C12.2023 15.0918 12.2835 14.8959 12.4279 14.7515C12.5723 14.6071 12.7682 14.5259 12.9724 14.5259H19.4631C19.6673 14.5259 19.8632 14.6071 20.0076 14.7515C20.152 14.8959 20.2331 15.0918 20.2331 15.296C20.2331 15.5002 20.152 15.6961 20.0076 15.8405C19.8632 15.985 19.6673 16.0661 19.4631 16.0661ZM19.0406 9.39942V7.04299L22.6556 10.7196H20.3718C20.0206 10.7196 19.6837 10.5808 19.4344 10.3336C19.185 10.0863 19.0435 9.75055 19.0406 9.39942Z" fill="#006161"/>
</svg>
