<svg width="45" height="45" viewBox="0 0 45 45" fill="none" xmlns="http://www.w3.org/2000/svg">
<path d="M26.2918 4.16797H11.6252C10.6527 4.16797 9.72007 4.55428 9.03244 5.24191C8.3448 5.92954 7.9585 6.86217 7.9585 7.83464V37.168C7.9585 38.1404 8.3448 39.0731 9.03244 39.7607C9.72007 40.4483 10.6527 40.8346 11.6252 40.8346H33.6252C34.5976 40.8346 35.5303 40.4483 36.2179 39.7607C36.9055 39.0731 37.2918 38.1404 37.2918 37.168V15.168L26.2918 4.16797Z" stroke="#C0C4CE" stroke-width="2" stroke-linecap="round" stroke-linejoin="round"/>
<path d="M26.2915 4.16797V15.168H37.2915" stroke="#C0C4CE" stroke-width="2" stroke-linecap="round" stroke-linejoin="round"/>
<path d="M29.9582 24.332H15.2915" stroke="#C0C4CE" stroke-width="2" stroke-linecap="round" stroke-linejoin="round"/>
<path d="M29.9582 31.668H15.2915" stroke="#C0C4CE" stroke-width="2" stroke-linecap="round" stroke-linejoin="round"/>
<path d="M18.9582 17H17.1248H15.2915" stroke="#C0C4CE" stroke-width="2" stroke-linecap="round" stroke-linejoin="round"/>
</svg>
