<svg width="14" height="14" viewBox="0 0 14 14" fill="none" xmlns="http://www.w3.org/2000/svg">
<path d="M7.00001 12.3334C8.4145 12.3334 9.77105 11.7715 10.7712 10.7713C11.7714 9.77108 12.3333 8.41453 12.3333 7.00004C12.3333 5.58555 11.7714 4.229 10.7712 3.2288C9.77105 2.22861 8.4145 1.66671 7.00001 1.66671C5.58552 1.66671 4.22897 2.22861 3.22877 3.2288C2.22858 4.229 1.66668 5.58555 1.66668 7.00004C1.66668 8.41453 2.22858 9.77108 3.22877 10.7713C4.22897 11.7715 5.58552 12.3334 7.00001 12.3334ZM7.00001 0.333374C7.87549 0.333374 8.7424 0.505812 9.55123 0.840844C10.3601 1.17588 11.095 1.66694 11.7141 2.286C12.3331 2.90505 12.8242 3.63998 13.1592 4.44882C13.4942 5.25765 13.6667 6.12456 13.6667 7.00004C13.6667 8.76815 12.9643 10.4638 11.7141 11.7141C10.4638 12.9643 8.76812 13.6667 7.00001 13.6667C3.31334 13.6667 0.333344 10.6667 0.333344 7.00004C0.333344 5.23193 1.03572 3.53624 2.28596 2.286C3.53621 1.03575 5.2319 0.333374 7.00001 0.333374ZM7.33334 3.66671V7.16671L10.3333 8.94671L9.83334 9.76671L6.33334 7.66671V3.66671H7.33334Z" fill="#434040"/>
</svg>
