<svg width="25" height="24" viewBox="0 0 25 24" fill="none" xmlns="http://www.w3.org/2000/svg">
<g id="Layer_1">
<path id="Vector" fill-rule="evenodd" clip-rule="evenodd" d="M14.508 13.7848L17.3598 7.76827L17.7253 6.99805L10.9384 10.2146L7.72119 17.0024L14.508 13.7852V13.7848ZM12.7239 10.9578C13.0099 10.9578 13.2698 11.0739 13.4606 11.2637C13.6494 11.4525 13.7655 11.7134 13.7655 11.9994C13.7655 12.2854 13.6484 12.548 13.4606 12.7361C13.2728 12.9243 13.0109 13.042 12.7239 13.042C12.4369 13.042 12.176 12.925 11.9862 12.7351C11.798 12.5463 11.6813 12.286 11.6813 11.9994C11.6813 11.7128 11.7983 11.4515 11.9862 11.2627C12.175 11.0739 12.4363 10.9578 12.7239 10.9578Z" fill="#25272D"/>
<circle id="Ellipse 75" cx="12.7234" cy="11.9998" r="10.012" stroke="#25272D" stroke-width="1.33493"/>
<path id="N" d="M13.9314 3.88281V7.11901H13.3405L11.9325 5.08216H11.9088V7.11901H11.2246V3.88281H11.8251L13.2219 5.91808H13.2504V3.88281H13.9314Z" fill="#25272D"/>
<path id="E" d="M18.5508 13.8788V10.6426H20.7314V11.2067H19.235V11.9778H20.6192V12.5419H19.235V13.3147H20.7377V13.8788H18.5508Z" fill="#25272D"/>
<path id="S" d="M12.98 17.3832C12.9673 17.2557 12.9131 17.1567 12.8172 17.0861C12.7214 17.0155 12.5913 16.9802 12.4269 16.9802C12.3153 16.9802 12.221 16.996 12.1441 17.0276C12.0672 17.0582 12.0082 17.1008 11.9671 17.1556C11.9271 17.2104 11.907 17.2726 11.907 17.3421C11.9049 17.4 11.9171 17.4506 11.9434 17.4938C11.9708 17.537 12.0082 17.5744 12.0556 17.606C12.103 17.6365 12.1578 17.6634 12.2199 17.6866C12.2821 17.7087 12.3484 17.7276 12.419 17.7434L12.7098 17.813C12.8509 17.8446 12.9805 17.8867 13.0985 17.9394C13.2165 17.9921 13.3187 18.0569 13.405 18.1338C13.4914 18.2107 13.5583 18.3013 13.6057 18.4055C13.6542 18.5098 13.6789 18.6294 13.68 18.7642C13.6789 18.9623 13.6284 19.134 13.5283 19.2794C13.4293 19.4237 13.286 19.5359 13.0985 19.616C12.912 19.695 12.6871 19.7345 12.4238 19.7345C12.1625 19.7345 11.935 19.6944 11.7411 19.6144C11.5483 19.5343 11.3977 19.4158 11.2892 19.2588C11.1817 19.1008 11.1254 18.9054 11.1201 18.6726H11.7822C11.7896 18.7811 11.8207 18.8717 11.8754 18.9444C11.9313 19.016 12.0055 19.0703 12.0982 19.1071C12.192 19.143 12.2979 19.1609 12.4159 19.1609C12.5317 19.1609 12.6323 19.144 12.7177 19.1103C12.8041 19.0766 12.8709 19.0297 12.9184 18.9697C12.9658 18.9096 12.9895 18.8406 12.9895 18.7627C12.9895 18.69 12.9679 18.6289 12.9247 18.5794C12.8825 18.5298 12.8204 18.4877 12.7382 18.4529C12.6571 18.4182 12.5575 18.3866 12.4396 18.3581L12.0872 18.2696C11.8143 18.2033 11.5989 18.0995 11.4409 17.9584C11.2829 17.8172 11.2044 17.627 11.2054 17.3879C11.2044 17.192 11.2565 17.0208 11.3619 16.8744C11.4683 16.7279 11.6142 16.6136 11.7996 16.5315C11.985 16.4493 12.1957 16.4082 12.4317 16.4082C12.6718 16.4082 12.8815 16.4493 13.0606 16.5315C13.2407 16.6136 13.3808 16.7279 13.4809 16.8744C13.581 17.0208 13.6326 17.1904 13.6358 17.3832H12.98Z" fill="#25272D"/>
<path id="W" d="M4.62667 13.8788L3.70068 10.6426H4.44811L4.98378 12.8912H5.01065L5.60163 10.6426H6.2416L6.83101 12.8959H6.85945L7.39513 10.6426H8.14255L7.21657 13.8788H6.54974L5.93347 11.7629H5.90819L5.2935 13.8788H4.62667Z" fill="#25272D"/>
</g>
</svg>
