<svg width="16" height="16" viewBox="0 0 16 16" fill="none" xmlns="http://www.w3.org/2000/svg">
<g id="icon/copy" clip-path="url(#clip0_4121_7549)">
<path id="Vector" d="M13.3333 6H7.33333C6.59695 6 6 6.59695 6 7.33333V13.3333C6 14.0697 6.59695 14.6667 7.33333 14.6667H13.3333C14.0697 14.6667 14.6667 14.0697 14.6667 13.3333V7.33333C14.6667 6.59695 14.0697 6 13.3333 6Z" stroke="#989FAE" stroke-width="1.2" stroke-linecap="round" stroke-linejoin="round"/>
<path id="Vector_2" d="M3.3335 9.99967H2.66683C2.31321 9.99967 1.97407 9.8592 1.72402 9.60915C1.47397 9.3591 1.3335 9.01996 1.3335 8.66634V2.66634C1.3335 2.31272 1.47397 1.97358 1.72402 1.72353C1.97407 1.47348 2.31321 1.33301 2.66683 1.33301H8.66683C9.02045 1.33301 9.35959 1.47348 9.60964 1.72353C9.85969 1.97358 10.0002 2.31272 10.0002 2.66634V3.33301" stroke="#989FAE" stroke-width="1.2" stroke-linecap="round" stroke-linejoin="round"/>
</g>
<defs>
<clipPath id="clip0_4121_7549">
<rect width="16" height="16" fill="white"/>
</clipPath>
</defs>
</svg>
