<svg width="42" height="42" viewBox="0 0 42 42" fill="none" xmlns="http://www.w3.org/2000/svg">
<g id="cv 1" clip-path="url(#clip0_508_12441)">
<g id="Group">
<g id="Group_2">
<g id="Group_3">
<path id="Vector" d="M14.3899 0.0285645C13.7099 0.0285645 13.1587 0.579822 13.1587 1.25978V40.7404C13.1587 41.4203 13.7099 41.9716 14.3899 41.9716H27.5794L28.4002 19.7281L27.5794 0.0285645H14.3899Z" fill="#E7F2FF"/>
<path id="Vector_2" d="M40.7688 0.0285645H27.5793V41.9716H40.7688C41.4488 41.9716 42 41.4203 42 40.7404V1.25978C42 0.579822 41.4488 0.0285645 40.7688 0.0285645Z" fill="#D0E8FF"/>
</g>
<g id="Group_4">
<g id="Group_5">
<path id="Vector_3" d="M20.5459 32.04C19.866 32.04 19.3147 32.5913 19.3147 33.2713C19.3147 33.9512 19.866 34.5025 20.5459 34.5025H27.5794L28.4002 33.2713L27.5794 32.04H20.5459Z" fill="#9DCFFF"/>
<path id="Vector_4" d="M34.6127 32.04H27.5793V34.5025H34.6127C35.2927 34.5025 35.8439 33.9512 35.8439 33.2713C35.8439 32.5913 35.2928 32.04 34.6127 32.04Z" fill="#75BCFF"/>
</g>
<g id="Group_6">
<path id="Vector_5" d="M20.5459 27.1152C19.866 27.1152 19.3147 27.6665 19.3147 28.3465C19.3147 29.0264 19.866 29.5777 20.5459 29.5777H27.5794L28.4002 28.3465L27.5794 27.1152H20.5459Z" fill="#9DCFFF"/>
<path id="Vector_6" d="M34.6127 27.1152H27.5793V29.5777H34.6127C35.2927 29.5777 35.8439 29.0264 35.8439 28.3465C35.8439 27.6665 35.2928 27.1152 34.6127 27.1152Z" fill="#75BCFF"/>
</g>
<g id="Group_7">
<path id="Vector_7" d="M20.5459 22.1904C19.866 22.1904 19.3147 22.7417 19.3147 23.4216C19.3147 24.1016 19.866 24.6529 20.5459 24.6529H27.5794L28.4002 23.4216L27.5794 22.1904H20.5459Z" fill="#9DCFFF"/>
<path id="Vector_8" d="M34.6127 22.1904H27.5793V24.6529H34.6127C35.2927 24.6529 35.8439 24.1016 35.8439 23.4216C35.8439 22.7417 35.2928 22.1904 34.6127 22.1904Z" fill="#75BCFF"/>
</g>
<g id="Group_8">
<path id="Vector_9" d="M20.5459 17.2656C19.866 17.2656 19.3147 17.8169 19.3147 18.4968C19.3147 19.1768 19.866 19.7281 20.5459 19.7281H27.5794L28.4002 18.4968L27.5794 17.2656H20.5459Z" fill="#9DCFFF"/>
<path id="Vector_10" d="M34.6127 17.2656H27.5793V19.7281H34.6127C35.2927 19.7281 35.8439 19.1768 35.8439 18.4968C35.8439 17.8169 35.2928 17.2656 34.6127 17.2656Z" fill="#75BCFF"/>
</g>
<g id="Group_9">
<path id="Vector_11" d="M20.5459 12.3406C19.866 12.3406 19.3147 12.8918 19.3147 13.5718C19.3147 14.2518 19.866 14.803 20.5459 14.803H27.5794L28.4002 13.5718L27.5794 12.3406H20.5459Z" fill="#9DCFFF"/>
<path id="Vector_12" d="M34.6127 12.3406H27.5793V14.803H34.6127C35.2927 14.803 35.8439 14.2518 35.8439 13.5718C35.8439 12.8918 35.2928 12.3406 34.6127 12.3406Z" fill="#75BCFF"/>
</g>
<g id="Group_10">
<path id="Vector_13" d="M20.5459 7.41577C19.866 7.41577 19.3147 7.96703 19.3147 8.64699C19.3147 9.32695 19.866 9.87821 20.5459 9.87821H27.5794L28.4002 8.64699L27.5794 7.41577H20.5459Z" fill="#9DCFFF"/>
<path id="Vector_14" d="M34.6127 7.41577H27.5793V9.87821H34.6127C35.2927 9.87821 35.8439 9.32695 35.8439 8.64699C35.8439 7.96703 35.2928 7.41577 34.6127 7.41577Z" fill="#75BCFF"/>
</g>
</g>
</g>
<g id="Group_11">
<path id="Vector_15" d="M7.73294 29.8874C7.41816 29.8874 7.10338 29.7674 6.86296 29.5274C6.3818 29.047 6.38122 28.2675 6.86165 27.7862L10.3364 24.3063C10.8168 23.8252 11.5963 23.8245 12.0776 24.305C12.5587 24.7855 12.5593 25.565 12.0789 26.0462L8.60415 29.5261C8.36365 29.7669 8.04829 29.8874 7.73294 29.8874Z" fill="#414C7F"/>
<path id="Vector_16" d="M18.9513 29.2032C15.8072 29.2032 12.8513 27.9788 10.6281 25.7555C6.03868 21.1661 6.03868 13.6984 10.6281 9.10904C12.8513 6.88578 15.8073 5.66138 18.9513 5.66138C22.0955 5.66138 25.0513 6.88578 27.2745 9.10904C29.4978 11.3323 30.7222 14.2882 30.7222 17.4322C30.7222 20.5762 29.4975 23.5323 27.2745 25.7554C27.2744 25.7556 27.2747 25.7553 27.2745 25.7554C25.0514 27.9788 22.0955 29.2032 18.9513 29.2032Z" fill="#75BCFF"/>
<path id="Vector_17" d="M18.9515 26.7407C16.4651 26.7407 14.1275 25.7724 12.3694 24.0143C8.74013 20.3849 8.74013 14.4796 12.3694 10.8502C14.1276 9.09209 16.4651 8.12378 18.9515 8.12378C20.8163 8.12378 22.5973 8.66839 24.113 9.68242L24.7127 10.8501L26.6939 12.2599C27.2033 13.0189 27.5948 13.8447 27.8589 14.7143L27.3191 15.9287L28.2567 17.1848C28.2588 17.2671 28.2599 17.3496 28.2599 17.4322C28.2599 18.1884 28.1703 18.9308 27.9962 19.6474L26.7945 20.8493L27.0741 21.9868C26.6612 22.7207 26.1451 23.4026 25.5334 24.0143C23.7754 25.7725 21.4379 26.7407 18.9515 26.7407Z" fill="#E7F2FF"/>
<g id="Group_12">
<path id="Vector_18" d="M27.9956 19.6475H18.4273C17.7473 19.6475 17.196 20.1987 17.196 20.8787C17.196 21.5586 17.7473 22.1099 18.4273 22.1099H27.003C27.4514 21.341 27.7853 20.5133 27.9956 19.6475Z" fill="#9DCFFF"/>
<path id="Vector_19" d="M27.8614 14.7224H18.4273C17.7473 14.7224 17.196 15.2737 17.196 15.9536C17.196 16.6336 17.7473 17.1849 18.4273 17.1849H28.2565C28.2346 16.3393 28.1006 15.5128 27.8614 14.7224Z" fill="#9DCFFF"/>
<path id="Vector_20" d="M25.5335 10.8502C25.1429 10.4596 24.7236 10.1083 24.2805 9.79761H18.4273C17.7473 9.79761 17.196 10.3489 17.196 11.0288C17.196 11.7088 17.7473 12.26 18.4273 12.26H26.6938C26.3575 11.7589 25.9699 11.2866 25.5335 10.8502Z" fill="#9DCFFF"/>
</g>
<path id="Vector_21" d="M3.70039 36.3855C2.71155 36.3855 1.78182 36.0003 1.08257 35.3011C1.08249 35.301 1.08257 35.3011 1.08249 35.3011C-0.360829 33.8577 -0.360829 31.5091 1.08249 30.0655L5.11243 26.0357C5.59318 25.5548 6.37279 25.5548 6.85362 26.0357L10.348 29.53C10.8288 30.0108 10.8288 30.7904 10.348 31.2712L6.31812 35.3011C5.61896 36.0004 4.68922 36.3855 3.70039 36.3855Z" fill="#FEDC47"/>
</g>
</g>
</g>
<defs>
<clipPath id="clip0_508_12441">
<rect width="42" height="42" fill="white"/>
</clipPath>
</defs>
</svg>
