<svg width="32" height="32" viewBox="0 0 32 32" fill="none" xmlns="http://www.w3.org/2000/svg">
<g id="doc (2) 1">
<g id="Group">
<g id="Vrstva_x0020_1_4_">
<path id="Vector" d="M8.19628 0H18.9032L27.9666 9.45593V27.8372C27.9666 30.1365 26.103 32 23.8038 32H8.19628C5.89699 32 4.03345 30.1364 4.03345 27.8372V4.16283C4.03345 1.86359 5.89699 0 8.19628 0Z" fill="#0263D1"/>
<g id="Group_2">
<path id="Vector_2" opacity="0.302" fill-rule="evenodd" clip-rule="evenodd" d="M18.8903 0V9.37826H27.9666L18.8903 0Z" fill="white"/>
<path id="Vector_3" d="M7.89856 22.8334V17.536H9.77509C10.1504 17.536 10.4998 17.5921 10.8234 17.6956C11.1469 17.8034 11.4402 17.9587 11.7034 18.1658C11.9665 18.3729 12.1736 18.649 12.3246 18.9941C12.4756 19.3392 12.5532 19.7361 12.5532 20.1847C12.5532 20.6333 12.4756 21.0302 12.3246 21.3753C12.1736 21.7204 11.9665 21.9965 11.7034 22.2035C11.4403 22.4106 11.1469 22.5659 10.8234 22.6738C10.4998 22.7773 10.1504 22.8334 9.77509 22.8334H7.89856ZM9.22291 21.6816H9.61546C9.82684 21.6816 10.0253 21.6557 10.2021 21.6083C10.3833 21.5565 10.5472 21.4745 10.7025 21.3667C10.8578 21.2588 10.9786 21.1035 11.0649 20.9008C11.1555 20.7023 11.1986 20.4608 11.1986 20.1847C11.1986 19.9086 11.1554 19.667 11.0649 19.4643C10.9786 19.2658 10.8578 19.1105 10.7025 19.0027C10.5472 18.8905 10.3833 18.8129 10.2021 18.7611C10.0253 18.7137 9.82684 18.6878 9.61546 18.6878H9.22291V21.6816ZM15.767 22.8938C14.969 22.8938 14.309 22.6349 13.787 22.1216C13.265 21.6083 13.0062 20.9612 13.0062 20.1847C13.0062 19.4082 13.265 18.7612 13.787 18.2478C14.309 17.7345 14.969 17.4757 15.767 17.4757C16.5521 17.4757 17.2035 17.7345 17.7255 18.2478C18.2431 18.7612 18.502 19.4083 18.502 20.1847C18.502 20.9612 18.2431 21.6083 17.7255 22.1216C17.2035 22.6349 16.5521 22.8938 15.767 22.8938ZM14.7489 21.302C15.0121 21.5953 15.3485 21.742 15.7584 21.742C16.1682 21.742 16.5003 21.5953 16.7635 21.302C17.0266 21.0043 17.1561 20.6333 17.1561 20.1847C17.1561 19.7361 17.0266 19.365 16.7635 19.0674C16.5004 18.7741 16.1682 18.6274 15.7584 18.6274C15.3485 18.6274 15.0121 18.7741 14.7489 19.0674C14.4858 19.365 14.3521 19.7361 14.3521 20.1847C14.3521 20.6333 14.4858 21.0043 14.7489 21.302ZM21.6511 22.8938C20.8789 22.8938 20.2361 22.6522 19.7271 22.1777C19.2138 21.6989 18.9593 21.0345 18.9593 20.1847C18.9593 19.3392 19.2181 18.6748 19.7358 18.196C20.2577 17.7172 20.8919 17.4756 21.6511 17.4756C22.337 17.4756 22.8978 17.6438 23.3421 17.9846C23.7822 18.3211 24.0367 18.7697 24.1014 19.3305L22.7641 19.6023C22.708 19.309 22.5743 19.0717 22.3672 18.8948C22.1601 18.7179 21.9186 18.6274 21.6425 18.6274C21.2628 18.6274 20.9479 18.7611 20.6934 19.0329C20.4389 19.3089 20.3095 19.6885 20.3095 20.1846C20.3095 20.6807 20.4389 21.0604 20.6891 21.3321C20.9436 21.6082 21.2585 21.742 21.6424 21.742C21.9185 21.742 22.1558 21.6643 22.3499 21.509C22.544 21.3537 22.6648 21.1467 22.7166 20.8878L24.0841 21.1984C23.959 21.7334 23.6829 22.1475 23.2515 22.4451C22.8244 22.7428 22.2895 22.8938 21.6511 22.8938Z" fill="white"/>
</g>
</g>
</g>
</g>
</svg>
