<svg width="32" height="32" viewBox="0 0 32 32" fill="none" xmlns="http://www.w3.org/2000/svg">
<g clip-path="url(#clip0_529_8043)">
<path d="M27.5876 8.7625V29.9375C27.5876 31.075 26.6626 32 25.5251 32H6.4751C5.3376 32 4.4126 31.075 4.4126 29.9375V2.0625C4.4126 0.925 5.3376 0 6.4751 0H18.8251L27.5876 8.7625Z" fill="#518FF5"/>
<path d="M10.075 16.0688H21.925V17.3876H10.075V16.0688Z" fill="white"/>
<path d="M10.075 19.0063H21.925V20.3251H10.075V19.0063Z" fill="white"/>
<path d="M10.075 21.9502H21.925V23.2689H10.075V21.9502Z" fill="white"/>
<path d="M10.075 24.8877H18.5062V26.2064H10.075V24.8877Z" fill="white"/>
<path opacity="0.19" d="M20.0188 8.43125L27.5875 14.5625V8.8L23.3 6.3125L20.0188 8.43125Z" fill="black"/>
<path d="M27.5875 8.7625H20.8875C19.75 8.7625 18.825 7.8375 18.825 6.7V0L27.5875 8.7625Z" fill="#A6C5FA"/>
</g>
<defs>
<clipPath id="clip0_529_8043">
<rect width="32" height="32" fill="white"/>
</clipPath>
</defs>
</svg>
