<svg width="24" height="24" viewBox="0 0 24 24" fill="none" xmlns="http://www.w3.org/2000/svg">
<g id="carbon:floorplan">
<path id="Vector" d="M19.9893 2.67969H4.0112C3.27887 2.67969 2.67969 3.27887 2.67969 4.0112V19.9893C2.67969 20.7216 3.27887 21.3208 4.0112 21.3208H13.9975V19.9893C13.9975 18.1252 15.4622 16.6605 17.3263 16.6605V15.329C14.7298 15.329 12.666 17.3929 12.666 19.9893H10.6687V17.3263H9.33723V19.9893H4.0112V4.0112H9.33723V13.3318H10.6687V10.003H13.3318V8.67147H10.6687V4.0112H19.9893V8.67147H17.3263V10.003H19.9893V19.9893H17.3263V21.3208H19.9893C20.7216 21.3208 21.3208 20.7216 21.3208 19.9893V4.0112C21.3208 3.27887 20.7216 2.67969 19.9893 2.67969Z" fill="#25272D"/>
</g>
</svg>
