<svg width="43" height="42" viewBox="0 0 43 42" fill="none" xmlns="http://www.w3.org/2000/svg">
<path d="M21.875 41C32.9207 41 41.875 32.0457 41.875 21C41.875 9.9543 32.9207 1 21.875 1C10.8293 1 1.875 9.9543 1.875 21C1.875 32.0457 10.8293 41 21.875 41Z" stroke="#C0C4CE" stroke-width="2" stroke-linecap="round" stroke-linejoin="round"/>
<path d="M16.0547 15.0011C16.5249 13.6645 17.453 12.5374 18.6746 11.8194C19.8962 11.1015 21.3325 10.839 22.729 11.0786C24.1256 11.3181 25.3923 12.0442 26.3048 13.1282C27.2174 14.2122 27.7168 15.5842 27.7147 17.0011C27.7147 21.0011 21.7147 23.0011 21.7147 23.0011" stroke="#C0C4CE" stroke-width="2" stroke-linecap="round" stroke-linejoin="round"/>
<path d="M21.875 31H21.895" stroke="#C0C4CE" stroke-width="2" stroke-linecap="round" stroke-linejoin="round"/>
</svg>
