<svg width="16" height="16" viewBox="0 0 16 16" fill="none" xmlns="http://www.w3.org/2000/svg">
<g id="image">
<path id="Vector" d="M12.6667 2H3.33333C2.59695 2 2 2.59695 2 3.33333V12.6667C2 13.403 2.59695 14 3.33333 14H12.6667C13.403 14 14 13.403 14 12.6667V3.33333C14 2.59695 13.403 2 12.6667 2Z" stroke="white" stroke-linecap="round" stroke-linejoin="round"/>
<path id="Vector_2" d="M5.66602 6.66699C6.2183 6.66699 6.66602 6.21928 6.66602 5.66699C6.66602 5.11471 6.2183 4.66699 5.66602 4.66699C5.11373 4.66699 4.66602 5.11471 4.66602 5.66699C4.66602 6.21928 5.11373 6.66699 5.66602 6.66699Z" stroke="white" stroke-linecap="round" stroke-linejoin="round"/>
<path id="Vector_3" d="M14.0007 10.0003L10.6673 6.66699L3.33398 14.0003" stroke="white" stroke-linecap="round" stroke-linejoin="round"/>
</g>
</svg>
