<svg width="32" height="32" viewBox="0 0 32 32" fill="none" xmlns="http://www.w3.org/2000/svg">
<g id="image 17">
<g id="Group">
<g id="Vrstva_x0020_1_9_">
<path id="Vector" fill-rule="evenodd" clip-rule="evenodd" d="M8.19954 0H18.9023L27.9678 9.45791V27.8326C27.9678 30.1328 26.1006 32 23.8004 32H8.19954C5.89933 32 4.0321 30.1328 4.0321 27.8326V4.16744C4.0321 1.86723 5.89933 0 8.19954 0Z" fill="#0AC963"/>
<g id="Group_2">
<path id="Vector_2" opacity="0.302" fill-rule="evenodd" clip-rule="evenodd" d="M18.8888 0V9.37673H27.9679L18.8888 0Z" fill="white"/>
<path id="Vector_3" fill-rule="evenodd" clip-rule="evenodd" d="M20.0659 15.9932H11.934C11.3251 15.9932 10.8245 16.4938 10.8245 17.1027V22.2714C10.8245 22.8803 11.3251 23.3809 11.934 23.3809H20.0659C20.6748 23.3809 21.1619 22.8803 21.1619 22.2714V17.1027C21.1619 16.4938 20.6748 15.9932 20.0659 15.9932ZM14.153 17.3868C14.816 17.3868 15.3437 17.928 15.3437 18.5775C15.3437 19.2405 14.816 19.7817 14.153 19.7817C13.49 19.7817 12.9488 19.2405 12.9488 18.5775C12.9488 17.928 13.49 17.3868 14.153 17.3868ZM20.4312 22.2714C20.4312 22.4744 20.2689 22.6502 20.0659 22.6502H11.934C11.731 22.6502 11.5687 22.4744 11.5687 22.2714V22.0549L13.0435 20.5801L14.2613 21.7979C14.4101 21.9467 14.6401 21.9467 14.7889 21.7979L17.8469 18.7399L20.4312 21.3243V22.2714Z" fill="white"/>
</g>
</g>
</g>
</g>
</svg>
