<svg width="21" height="20" viewBox="0 0 21 20" fill="none" xmlns="http://www.w3.org/2000/svg">
<g id="icon/file-text">
<path id="Vector" d="M11.7518 1.66699H5.08512C4.6431 1.66699 4.21917 1.84259 3.90661 2.15515C3.59405 2.46771 3.41846 2.89163 3.41846 3.33366V16.667C3.41846 17.109 3.59405 17.5329 3.90661 17.8455C4.21917 18.1581 4.6431 18.3337 5.08512 18.3337H15.0851C15.5272 18.3337 15.9511 18.1581 16.2636 17.8455C16.5762 17.5329 16.7518 17.109 16.7518 16.667V6.66699L11.7518 1.66699Z" stroke="#3C4049" stroke-width="1.5" stroke-linecap="round" stroke-linejoin="round"/>
<path id="Vector_2" d="M13.4181 14.167H6.75146" stroke="#3C4049" stroke-width="1.5" stroke-linecap="round" stroke-linejoin="round"/>
<path id="Vector_3" d="M13.4181 10.833H6.75146" stroke="#3C4049" stroke-width="1.5" stroke-linecap="round" stroke-linejoin="round"/>
<path id="Vector_4" d="M8.41813 7.5H7.5848H6.75146" stroke="#3C4049" stroke-width="1.5" stroke-linecap="round" stroke-linejoin="round"/>
<path id="Vector_5" d="M11.7515 1.66699V6.66699H16.7515" stroke="#3C4049" stroke-width="1.5" stroke-linecap="round" stroke-linejoin="round"/>
</g>
</svg>
