<svg width="14" height="16" viewBox="0 0 14 16" fill="none" xmlns="http://www.w3.org/2000/svg">
<g id="Group">
<path id="Vector" d="M7 8.66602C8.10457 8.66602 9 7.77059 9 6.66602C9 5.56145 8.10457 4.66602 7 4.66602C5.89543 4.66602 5 5.56145 5 6.66602C5 7.77059 5.89543 8.66602 7 8.66602Z" stroke="#656C7B" stroke-width="1.5" stroke-linecap="round" stroke-linejoin="round"/>
<path id="Vector_2" d="M6.99984 1.33301C5.58535 1.33301 4.22879 1.89491 3.2286 2.89511C2.22841 3.8953 1.6665 5.25185 1.6665 6.66634C1.6665 7.92767 1.9345 8.75301 2.6665 9.66634L6.99984 14.6663L11.3332 9.66634C12.0652 8.75301 12.3332 7.92767 12.3332 6.66634C12.3332 5.25185 11.7713 3.8953 10.7711 2.89511C9.77088 1.89491 8.41432 1.33301 6.99984 1.33301V1.33301Z" stroke="#656C7B" stroke-width="1.5" stroke-linecap="round" stroke-linejoin="round"/>
</g>
</svg>
