<svg width="16" height="16" viewBox="0 0 16 16" fill="none" xmlns="http://www.w3.org/2000/svg">
<path d="M8 8.66602C9.10457 8.66602 10 7.77059 10 6.66602C10 5.56145 9.10457 4.66602 8 4.66602C6.89543 4.66602 6 5.56145 6 6.66602C6 7.77059 6.89543 8.66602 8 8.66602Z" stroke="#656C7B" stroke-width="1.5" stroke-linecap="round" stroke-linejoin="round"/>
<path d="M7.99984 1.33301C6.58535 1.33301 5.22879 1.89491 4.2286 2.89511C3.22841 3.8953 2.6665 5.25185 2.6665 6.66634C2.6665 7.92767 2.9345 8.75301 3.6665 9.66634L7.99984 14.6663L12.3332 9.66634C13.0652 8.75301 13.3332 7.92767 13.3332 6.66634C13.3332 5.25185 12.7713 3.8953 11.7711 2.89511C10.7709 1.89491 9.41432 1.33301 7.99984 1.33301V1.33301Z" stroke="#656C7B" stroke-width="1.5" stroke-linecap="round" stroke-linejoin="round"/>
</svg>
