<svg width="16" height="16" viewBox="0 0 16 16" fill="none" xmlns="http://www.w3.org/2000/svg">
<g id="uil:envelope">
<path id="Vector" d="M12.6666 2.66675H3.33325C2.80282 2.66675 2.29411 2.87746 1.91904 3.25253C1.54397 3.62761 1.33325 4.13632 1.33325 4.66675V11.3334C1.33325 11.8638 1.54397 12.3726 1.91904 12.7476C2.29411 13.1227 2.80282 13.3334 3.33325 13.3334H12.6666C13.197 13.3334 13.7057 13.1227 14.0808 12.7476C14.4559 12.3726 14.6666 11.8638 14.6666 11.3334V4.66675C14.6666 4.13632 14.4559 3.62761 14.0808 3.25253C13.7057 2.87746 13.197 2.66675 12.6666 2.66675ZM12.3933 4.00008L8.47325 7.92008C8.41128 7.98257 8.33754 8.03216 8.2563 8.06601C8.17506 8.09985 8.08793 8.11728 7.99992 8.11728C7.91191 8.11728 7.82477 8.09985 7.74353 8.06601C7.66229 8.03216 7.58856 7.98257 7.52659 7.92008L3.60659 4.00008H12.3933ZM13.3333 11.3334C13.3333 11.5102 13.263 11.6798 13.138 11.8048C13.013 11.9298 12.8434 12.0001 12.6666 12.0001H3.33325C3.15644 12.0001 2.98687 11.9298 2.86185 11.8048C2.73682 11.6798 2.66659 11.5102 2.66659 11.3334V4.94008L6.58659 8.86008C6.96159 9.23462 7.46992 9.44499 7.99992 9.44499C8.52992 9.44499 9.03825 9.23462 9.41325 8.86008L13.3333 4.94008V11.3334Z" fill="#434040"/>
</g>
</svg>
