<svg width="32" height="32" viewBox="0 0 32 32" fill="none" xmlns="http://www.w3.org/2000/svg">
<g id="pdf (3) 1">
<g id="Group">
<g id="Vrstva_x0020_1_15_">
<path id="Vector" fill-rule="evenodd" clip-rule="evenodd" d="M8.19996 0H18.8986L27.9661 9.45128V27.8341C27.9661 30.1369 26.103 32 23.8081 32H8.19996C5.89712 32 4.03406 30.1369 4.03406 27.8341V4.1659C4.03402 1.86306 5.89708 0 8.19996 0Z" fill="#E5252A"/>
<g id="Group_2">
<path id="Vector_2" opacity="0.302" fill-rule="evenodd" clip-rule="evenodd" d="M18.8906 0V9.37931H27.9661L18.8906 0Z" fill="white"/>
<path id="Vector_3" d="M8.6637 23.8763V18.0312H11.1505C11.7662 18.0312 12.2539 18.1992 12.6217 18.543C12.9895 18.8788 13.1735 19.3346 13.1735 19.9023C13.1735 20.47 12.9895 20.9258 12.6217 21.2616C12.2539 21.6055 11.7662 21.7734 11.1505 21.7734H10.1589V23.8763H8.6637ZM10.1589 20.502H10.9825C11.2064 20.502 11.3823 20.4541 11.5023 20.3421C11.6222 20.2382 11.6862 20.0942 11.6862 19.9024C11.6862 19.7105 11.6223 19.5665 11.5023 19.4626C11.3824 19.3506 11.2065 19.3027 10.9825 19.3027H10.1589V20.502ZM13.7891 23.8763V18.0312H15.8601C16.2679 18.0312 16.6517 18.0872 17.0115 18.2072C17.3713 18.3271 17.6992 18.495 17.987 18.7269C18.2749 18.9508 18.5068 19.2546 18.6747 19.6385C18.8346 20.0223 18.9226 20.4621 18.9226 20.9578C18.9226 21.4456 18.8346 21.8853 18.6747 22.2691C18.5068 22.6529 18.2749 22.9568 17.987 23.1807C17.6991 23.4125 17.3713 23.5804 17.0115 23.7004C16.6517 23.8203 16.2679 23.8763 15.8601 23.8763H13.7891ZM15.2524 22.605H15.6842C15.916 22.605 16.132 22.581 16.3319 22.525C16.5237 22.4691 16.7077 22.3811 16.8836 22.2612C17.0515 22.1412 17.1874 21.9733 17.2834 21.7494C17.3793 21.5255 17.4273 21.2616 17.4273 20.9578C17.4273 20.6459 17.3793 20.3821 17.2834 20.1582C17.1874 19.9343 17.0515 19.7664 16.8836 19.6465C16.7077 19.5265 16.5238 19.4386 16.3319 19.3826C16.132 19.3266 15.916 19.3026 15.6842 19.3026H15.2524V22.605ZM19.6742 23.8763V18.0312H23.8321V19.3026H21.1694V20.2381H23.2964V21.5015H21.1694V23.8763H19.6742Z" fill="white"/>
</g>
</g>
</g>
</g>
</svg>
