<svg xmlns="http://www.w3.org/2000/svg" width="32" height="32" viewBox="0 0 32 32" fill="none">
    <path fill-rule="evenodd" clip-rule="evenodd" d="M8.1999 0H18.8985L27.966 9.45128V27.8341C27.966 30.1369 26.1029 32 23.8081 32H8.1999C5.89706 32 4.034 30.1369 4.034 27.8341V4.1659C4.03396 1.86306 5.89702 0 8.1999 0Z" fill="#E5252A" />
    <path opacity="0.302" fill-rule="evenodd" clip-rule="evenodd" d="M18.8905 0V9.37931H27.966L18.8905 0Z" fill="white" />
    <path d="M8.66364 23.8763V18.0312H11.1504C11.7661 18.0312 12.2539 18.1992 12.6217 18.543C12.9895 18.8788 13.1734 19.3346 13.1734 19.9023C13.1734 20.47 12.9895 20.9258 12.6217 21.2616C12.2539 21.6055 11.7661 21.7734 11.1504 21.7734H10.1589V23.8763H8.66364ZM10.1589 20.502H10.9825C11.2064 20.502 11.3823 20.4541 11.5022 20.3421C11.6222 20.2382 11.6862 20.0942 11.6862 19.9024C11.6862 19.7105 11.6222 19.5665 11.5022 19.4626C11.3823 19.3506 11.2064 19.3027 10.9825 19.3027H10.1589V20.502ZM13.7891 23.8763V18.0312H15.86C16.2678 18.0312 16.6516 18.0872 17.0114 18.2072C17.3713 18.3271 17.6991 18.495 17.987 18.7269C18.2748 18.9508 18.5067 19.2546 18.6746 19.6385C18.8345 20.0223 18.9225 20.4621 18.9225 20.9578C18.9225 21.4456 18.8346 21.8853 18.6746 22.2691C18.5067 22.6529 18.2748 22.9568 17.987 23.1807C17.6991 23.4125 17.3713 23.5804 17.0114 23.7004C16.6516 23.8203 16.2678 23.8763 15.86 23.8763H13.7891ZM15.2523 22.605H15.6841C15.916 22.605 16.1319 22.581 16.3318 22.525C16.5237 22.4691 16.7076 22.3811 16.8835 22.2612C17.0514 22.1412 17.1874 21.9733 17.2833 21.7494C17.3793 21.5255 17.4273 21.2616 17.4273 20.9578C17.4273 20.6459 17.3793 20.3821 17.2833 20.1582C17.1874 19.9343 17.0514 19.7664 16.8835 19.6465C16.7076 19.5265 16.5237 19.4386 16.3318 19.3826C16.1319 19.3266 15.916 19.3026 15.6841 19.3026H15.2523V22.605ZM19.6741 23.8763V18.0312H23.8321V19.3026H21.1694V20.2381H23.2963V21.5015H21.1694V23.8763H19.6741Z" fill="white" />
</svg>