<svg width="42" height="42" viewBox="0 0 42 42" fill="none" xmlns="http://www.w3.org/2000/svg">
    <path d="M30.7132 14.3909C31.6497 12.0139 33.2535 5.03403 28.134 4.79509C26.937 4.73923 25.807 4.25069 23.6793 3.46568C18.0359 1.38351 7.12185 2.72717 11.2985 14.3909H30.7132Z" fill="#3D3C3B"/>
    <path d="M10.4076 29.6465C9.78276 29.6857 9.19637 29.9615 8.76777 30.4178C8.33917 30.8741 8.10059 31.4766 8.10059 32.1026V35.4372C8.10059 36.862 8.38812 37.5293 10.6806 38.0172C10.6806 38.0172 18.3982 39.3749 21.0004 39.3749C23.6026 39.3749 31.3203 38.0172 31.3203 38.0172C33.6127 37.5293 33.9002 36.862 33.9002 35.4372V32.1026C33.9002 31.4766 33.6616 30.8741 33.2331 30.4178C32.8045 29.9615 32.2181 29.6857 31.5933 29.6465L21.0016 28.9824L10.4076 29.6465Z" fill="#6178BA"/>
    <path d="M17.1309 28.9709H24.8708V32.5099L21.0008 39.3723L17.1309 32.8574V28.9709Z" fill="#CCE2EA"/>
    <path d="M21.4102 34.0417H20.5899L19.6064 38.0017L21.0001 39.3749L22.3937 38.0017L21.4102 34.0417Z" fill="#FC8884"/>
    <path d="M21.0005 35.3917C21.7004 35.3917 22.2677 34.8244 22.2677 34.1246C22.2677 33.4247 21.7004 32.8574 21.0005 32.8574C20.3007 32.8574 19.7334 33.4247 19.7334 34.1246C19.7334 34.8244 20.3007 35.3917 21.0005 35.3917Z" fill="#FC8884"/>
    <path d="M17.1303 28.9709L21.0002 32.8574L18.5932 35.269C18.5932 35.269 15.7622 32.1053 17.1303 28.9709Z" fill="#EAF6FC"/>
    <path d="M24.87 28.9709L21 32.8574L23.407 35.269C23.407 35.269 26.238 32.1053 24.87 28.9709Z" fill="#EAF6FC"/>
    <path d="M13.7258 31.9681C14.2513 31.0745 15.6892 29.5832 17.1303 28.9873C17.1303 31.4999 18.4875 34.0115 21.0003 39.3721L20.9968 39.3749C20.0895 39.3744 18.563 39.2096 16.9585 38.995C16.0866 37.2899 14.8816 35.0934 14.8816 34.5721C14.8577 34.1249 15.4755 33.8926 16.2197 33.4557L14.0271 32.7523C13.9502 32.7278 13.8799 32.6863 13.8212 32.631C13.7625 32.5756 13.7171 32.5078 13.6881 32.4325C13.6592 32.3572 13.6476 32.2764 13.6541 32.196C13.6606 32.1156 13.6851 32.0377 13.7258 31.9681Z" fill="#8A98CD"/>
    <path d="M28.2745 31.9681C27.749 31.0745 26.3111 29.5832 24.8699 28.9873C24.8699 31.4999 23.5128 34.0115 21 39.3721L21.0034 39.3749C21.9108 39.3744 23.4373 39.2096 25.0418 38.995C25.9137 37.2899 27.1186 35.0934 27.1186 34.5721C27.1426 34.1249 26.5247 33.8926 25.7806 33.4557L27.9732 32.7523C28.05 32.7278 28.1204 32.6863 28.1791 32.631C28.2377 32.5756 28.2832 32.5078 28.3121 32.4325C28.3411 32.3572 28.3527 32.2764 28.3462 32.196C28.3397 32.1156 28.3151 32.0377 28.2745 31.9681Z" fill="#8A98CD"/>
    <path d="M21.0008 32.8573L24.8708 28.9874V26.4075H17.1309V28.9874L21.0008 32.8573Z" fill="#FFD5B3"/>
    <path d="M17.1309 28.9709C18.1907 29.459 19.4594 29.7614 21.0008 29.7614C22.5422 29.7614 23.8109 29.459 24.8708 28.9709V27.1814H17.1309V28.9709Z" fill="#F4BDA2"/>
    <path d="M29.929 20.7078C29.9514 20.5743 30.0149 20.4511 30.1106 20.3555C30.2064 20.2598 30.3295 20.1964 30.463 20.174C31.0608 20.0677 31.6026 19.7559 31.9948 19.2923C32.3869 18.8288 32.6046 18.2427 32.6103 17.6356V15.7006C32.6045 15.0909 32.3849 14.5025 31.9897 14.0382C31.5945 13.5738 31.0489 13.2629 30.4479 13.1596C30.319 13.1376 30.1996 13.0776 30.1049 12.9873C30.0103 12.897 29.9447 12.7806 29.9167 12.6528C29.66 11.5055 29.0205 10.4797 28.1034 9.74416C27.1862 9.00861 26.0461 8.60712 24.8704 8.60571H17.1305C15.9549 8.60712 14.8147 9.00861 13.8975 9.74416C12.9804 10.4797 12.3409 11.5055 12.0843 12.6528C12.0562 12.7806 11.9906 12.897 11.896 12.9873C11.8014 13.0776 11.682 13.1376 11.553 13.1596C10.9521 13.2629 10.4064 13.5738 10.0112 14.0382C9.61606 14.5025 9.39642 15.0909 9.39062 15.7006V17.6356C9.39631 18.2427 9.61405 18.8287 10.0062 19.2923C10.3983 19.7558 10.9401 20.0677 11.5379 20.174C11.6713 20.1963 11.7945 20.2598 11.8902 20.3554C11.986 20.4511 12.0495 20.5743 12.0719 20.7077C12.5236 23.5262 14.2934 28.6004 21.0004 28.6004C27.7075 28.6004 29.4773 23.5263 29.929 20.7078Z" fill="#FFD5B3"/>
    <path d="M17.9392 16.9712C18.4409 16.4695 18.4409 15.656 17.9392 15.1543C17.4375 14.6526 16.624 14.6526 16.1223 15.1543C15.6206 15.656 15.6206 16.4695 16.1223 16.9712C16.624 17.4729 17.4375 17.4729 17.9392 16.9712Z" fill="#3D3C3B"/>
    <path d="M25.8709 16.9722C26.3726 16.4704 26.3726 15.657 25.8709 15.1553C25.3691 14.6535 24.5557 14.6535 24.054 15.1553C23.5522 15.657 23.5522 16.4704 24.054 16.9722C24.5557 17.4739 25.3691 17.4739 25.8709 16.9722Z" fill="#3D3C3B"/>
</svg>
