<svg width="43" height="36" viewBox="0 0 43 36" fill="none" xmlns="http://www.w3.org/2000/svg">
<path d="M30.2159 34.3622V30.7259C30.2159 28.797 29.4497 26.9472 28.0858 25.5833C26.7219 24.2194 24.872 23.4531 22.9432 23.4531H8.39773C6.46888 23.4531 4.61903 24.2194 3.25513 25.5833C1.89123 26.9472 1.125 28.797 1.125 30.7259V34.3622" stroke="#C0C4CE" stroke-width="2" stroke-linecap="round" stroke-linejoin="round"/>
<path d="M15.6707 16.1802C19.6873 16.1802 22.9434 12.9241 22.9434 8.90749C22.9434 4.89088 19.6873 1.63477 15.6707 1.63477C11.6541 1.63477 8.39795 4.89088 8.39795 8.90749C8.39795 12.9241 11.6541 16.1802 15.6707 16.1802Z" stroke="#C0C4CE" stroke-width="2" stroke-linecap="round" stroke-linejoin="round"/>
<path d="M41.125 34.3641V30.7278C41.1238 29.1164 40.5874 27.551 39.6002 26.2774C38.6129 25.0039 37.2306 24.0943 35.6704 23.6914" stroke="#C0C4CE" stroke-width="2" stroke-linecap="round" stroke-linejoin="round"/>
<path d="M28.3979 1.87305C29.9623 2.27359 31.3489 3.18341 32.3391 4.45907C33.3293 5.73472 33.8668 7.30365 33.8668 8.9185C33.8668 10.5334 33.3293 12.1023 32.3391 13.3779C31.3489 14.6536 29.9623 15.5634 28.3979 15.964" stroke="#C0C4CE" stroke-width="2" stroke-linecap="round" stroke-linejoin="round"/>
</svg>
