<svg width="32" height="32" viewBox="0 0 32 32" fill="none" xmlns="http://www.w3.org/2000/svg">
<g id="material-symbols:currency-rupee">
<circle id="Ellipse 73" cx="16.0002" cy="15.9997" r="14.6667" fill="#B7D1FF"/>
<path id="Union" fill-rule="evenodd" clip-rule="evenodd" d="M21.6 9.6H22.4C22.8 9.6 23.2 10 23.2 10.4V14.24C22.08 13.36 20.72 12.8 19.2 12.8C15.68 12.8 12.8 15.68 12.8 19.2C12.8 20.32 13.12 21.44 13.68 22.4H8.8C8.4 22.4 8 22.08 8 21.6V10.4C8 9.92 8.4 9.6 8.8 9.6H10.4V8.8C10.4 8.32 10.72 8 11.2 8C11.68 8 12 8.32 12 8.8V9.6H20V8.8C20 8.32 20.32 8 20.8 8C21.28 8 21.6 8.32 21.6 8.8V9.6ZM14.3997 19.2C14.3997 16.56 16.5597 14.4 19.1997 14.4C21.8397 14.4 23.9997 16.56 23.9997 19.2C23.9997 21.84 21.8397 24 19.1997 24C16.5597 24 14.3997 21.84 14.3997 19.2ZM18.3997 19.2C18.3997 19.68 18.7197 20 19.1997 20H20.7997C21.2797 20 21.5997 19.68 21.5997 19.2C21.5997 18.72 21.2797 18.4 20.7997 18.4H19.9997V16.8C19.9997 16.32 19.6797 16 19.1997 16C18.7197 16 18.3997 16.32 18.3997 16.8V19.2Z" fill="#053864"/>
</g>
</svg>
