<svg xmlns="http://www.w3.org/2000/svg" width="24" height="24" viewBox="0 0 24 24" fill="none">
<path d="M8.45 5.55L13 1V4.07C16.94 4.56 20 7.92 20 12C20 16.08 16.95 19.44 13 19.93V17.91C15.84 17.43 18 14.97 18 12C18 9.03 15.84 6.57 13 6.09V10L8.45 5.55ZM4.07 11C4.24813 9.58066 4.80802 8.23623 5.69 7.11L7.11 8.53C6.57 9.28 6.23 10.13 6.09 11H4.07ZM11 17.9V19.92C9.61 19.75 8.26 19.21 7.1 18.31L8.54 16.87C9.29 17.41 10.13 17.76 11 17.9ZM7.11 15.48L5.69 16.89C4.79 15.73 4.24 14.39 4.07 13H6.09C6.23 13.87 6.57 14.72 7.11 15.48Z" fill="#FFF5F6"/>
</svg>