<svg width="32" height="32" viewBox="0 0 32 32" fill="none" xmlns="http://www.w3.org/2000/svg">
<g id="material-symbols:currency-rupee">
<circle id="Ellipse 73" cx="15.9999" cy="15.9997" r="14.6667" fill="url(#paint0_radial_1236_7070)"/>
<g id="Vector" filter="url(#filter0_d_1236_7070)">
<path d="M17.4015 24.5299L11.9381 17.8954V15.9998H14.7815C15.4991 15.9998 16.1187 15.7275 16.6402 15.1828C17.1618 14.6382 17.4765 13.9627 17.5842 13.1565H11.1257V11.2609H17.3405C17.1103 10.708 16.7683 10.254 16.3145 9.89891C15.8606 9.54381 15.3496 9.36594 14.7815 9.36531H11.1257V7.46973H20.8744V9.36531H18.2342C18.4237 9.63385 18.593 9.92608 18.7419 10.242C18.8908 10.5579 19.0059 10.8976 19.0872 11.2609H20.8744V13.1565H19.2293C19.121 14.4992 18.6471 15.6248 17.8077 16.5334C16.9682 17.4421 15.9595 17.8961 14.7815 17.8954H14.1925L19.6558 24.5299H17.4015Z" fill="#8C5D00"/>
</g>
</g>
<defs>
<filter id="filter0_d_1236_7070" x="11.1257" y="7.46973" width="9.74878" height="18.0605" filterUnits="userSpaceOnUse" color-interpolation-filters="sRGB">
<feFlood flood-opacity="0" result="BackgroundImageFix"/>
<feColorMatrix in="SourceAlpha" type="matrix" values="0 0 0 0 0 0 0 0 0 0 0 0 0 0 0 0 0 0 127 0" result="hardAlpha"/>
<feOffset dy="1"/>
<feComposite in2="hardAlpha" operator="out"/>
<feColorMatrix type="matrix" values="0 0 0 0 0 0 0 0 0 0 0 0 0 0 0 0 0 0 0.12 0"/>
<feBlend mode="normal" in2="BackgroundImageFix" result="effect1_dropShadow_1236_7070"/>
<feBlend mode="normal" in="SourceGraphic" in2="effect1_dropShadow_1236_7070" result="shape"/>
</filter>
<radialGradient id="paint0_radial_1236_7070" cx="0" cy="0" r="1" gradientUnits="userSpaceOnUse" gradientTransform="translate(15.9999 1.33301) rotate(90) scale(24)">
<stop stop-color="#FFD98F"/>
<stop offset="1" stop-color="#FFB800"/>
</radialGradient>
</defs>
</svg>
