<svg width="24" height="24" viewBox="0 0 24 24" fill="none" xmlns="http://www.w3.org/2000/svg">
<circle cx="11.9152" cy="12.0001" r="9.96106" stroke="#25272D" stroke-width="1.8111"/>
<path d="M13.0332 18.3388L8.97333 13.4086V12H11.0863C11.6196 12 12.08 11.7976 12.4675 11.3929C12.8551 10.9881 13.089 10.4862 13.169 9.88704H8.36963V8.4784H12.9879C12.8169 8.06755 12.5627 7.73018 12.2255 7.4663C11.8882 7.20241 11.5085 7.07024 11.0863 7.06977H8.36963V5.66113H15.614V7.06977H13.652C13.7929 7.26932 13.9186 7.48649 14.0293 7.72126C14.14 7.95603 14.2255 8.20841 14.2859 8.4784H15.614V9.88704H14.3915C14.311 10.8848 13.9589 11.7213 13.3351 12.3965C12.7112 13.0717 11.9616 13.4091 11.0863 13.4086H10.6486L14.7085 18.3388H13.0332Z" fill="#25272D"/>
</svg>
