<svg width="32" height="32" viewBox="0 0 32 32" fill="none" xmlns="http://www.w3.org/2000/svg">
<g id="material-symbols:currency-rupee">
<circle id="Ellipse 73" cx="15.9999" cy="15.9997" r="14.6667" fill="#74E2C7"/>
<path id="Union" fill-rule="evenodd" clip-rule="evenodd" d="M20.8305 11.6523C20.5446 11.6523 20.3129 11.4206 20.3129 11.1348V7.16699H12.8948C12.0387 7.16699 11.3422 7.8635 11.3422 8.71961V14.5053C11.5127 14.4899 11.6853 14.4816 11.8598 14.4816C13.6238 14.4816 15.203 15.2881 16.248 16.5517H21.8655C22.1514 16.5517 22.3831 16.7834 22.3831 17.0693C22.3831 17.3551 22.1514 17.5868 21.8655 17.5868H16.9299C17.2534 18.2181 17.462 18.9174 17.5289 19.657H21.8655C22.1514 19.657 22.3831 19.8887 22.3831 20.1745C22.3831 20.4603 22.1514 20.692 21.8655 20.692H17.5289C17.3742 22.4013 16.4609 23.8948 15.1292 24.8324H23.2456C24.1018 24.8324 24.7983 24.1358 24.7983 23.2797V11.6523H20.8305ZM21.8655 14.4816H14.2749C13.9891 14.4816 13.7574 14.2498 13.7574 13.964C13.7574 13.6782 13.9891 13.4465 14.2749 13.4465H21.8655C22.1514 13.4465 22.3831 13.6782 22.3831 13.964C22.3831 14.2498 22.1514 14.4816 21.8655 14.4816ZM11.8598 15.5166C9.29142 15.5166 7.2019 17.6061 7.2019 20.1745C7.2019 22.7428 9.29142 24.8324 11.8598 24.8324C14.4281 24.8324 16.5176 22.7428 16.5176 20.1745C16.5176 17.6061 14.4281 15.5166 11.8598 15.5166ZM13.9163 19.6089L11.5011 22.024C11.4001 22.1251 11.2677 22.1756 11.1352 22.1756C11.0028 22.1756 10.8703 22.1251 10.7693 22.024L9.73419 20.989C9.53208 20.7869 9.53208 20.4592 9.73419 20.2571C9.93627 20.055 10.264 20.055 10.4661 20.2571L11.1352 20.9262L13.1845 18.877C13.3865 18.6749 13.7142 18.6749 13.9164 18.877C14.1184 19.0791 14.1184 19.4068 13.9163 19.6089ZM21.348 10.6173V7.47005L24.495 10.6173H21.348Z" fill="#006161"/>
</g>
</svg>
