<svg width="32" height="32" viewBox="0 0 32 32" fill="none" xmlns="http://www.w3.org/2000/svg">
<g id="material-symbols:currency-rupee">
<circle id="Ellipse 73" cx="16.0002" cy="15.9997" r="14.6667" fill="#74E2C7"/>
<path id="Union" fill-rule="evenodd" clip-rule="evenodd" d="M20.8302 11.6523C20.5444 11.6523 20.3127 11.4206 20.3127 11.1348V7.16699H12.8946C12.0385 7.16699 11.342 7.8635 11.342 8.71961V14.5053C11.5125 14.4899 11.685 14.4816 11.8595 14.4816C13.6236 14.4816 15.2027 15.2881 16.2478 16.5517H21.8653C22.1511 16.5517 22.3828 16.7834 22.3828 17.0693C22.3828 17.3551 22.1511 17.5868 21.8653 17.5868H16.9296C17.2531 18.2181 17.4617 18.9174 17.5287 19.657H21.8653C22.1511 19.657 22.3828 19.8887 22.3828 20.1745C22.3828 20.4603 22.1511 20.692 21.8653 20.692H17.5287C17.3739 22.4013 16.4607 23.8948 15.1289 24.8324H23.2454C24.1015 24.8324 24.798 24.1358 24.798 23.2797V11.6523H20.8302ZM21.8653 14.4816H14.2747C13.9889 14.4816 13.7572 14.2498 13.7572 13.964C13.7572 13.6782 13.9889 13.4465 14.2747 13.4465H21.8653C22.1511 13.4465 22.3828 13.6782 22.3828 13.964C22.3828 14.2498 22.1511 14.4816 21.8653 14.4816ZM11.8595 15.5166C9.29118 15.5166 7.20166 17.6061 7.20166 20.1745C7.20166 22.7428 9.29118 24.8324 11.8595 24.8324C14.4279 24.8324 16.5174 22.7428 16.5174 20.1745C16.5174 17.6061 14.4279 15.5166 11.8595 15.5166ZM13.9161 19.6089L11.5009 22.024C11.3999 22.1251 11.2674 22.1756 11.135 22.1756C11.0025 22.1756 10.8701 22.1251 10.769 22.024L9.73395 20.989C9.53183 20.7869 9.53183 20.4592 9.73395 20.2571C9.93603 20.055 10.2637 20.055 10.4659 20.2571L11.135 20.9262L13.1842 18.877C13.3863 18.6749 13.714 18.6749 13.9161 18.877C14.1182 19.0791 14.1182 19.4068 13.9161 19.6089ZM21.3477 10.6173V7.47005L24.4948 10.6173H21.3477Z" fill="#006161"/>
</g>
</svg>
