<svg width="42" height="42" viewBox="0 0 42 42" fill="none" xmlns="http://www.w3.org/2000/svg">
<g id="upload (1) 1">
<g id="layer1">
<path id="rect3327" d="M27.1113 6.02963C22.5966 5.93934 17.9399 8.5247 16.6626 14.3583C11.4637 12.5838 6.7696 16.0837 7.2572 21.6719C4.53705 22.7715 2.625 25.4289 2.625 28.5523C2.625 32.6651 5.93601 35.9761 10.0488 35.9761H19.0671C19.0646 33.4767 19.0594 28.4615 19.0594 27.5115L16.9445 28.278C15.4103 28.9392 14.2771 27.0071 15.591 25.8042L19.5926 21.9154C20.5066 21.0014 21.5982 21.1062 22.4074 21.9154L26.4089 25.8042C27.7229 27.0071 26.5897 28.9392 25.0554 28.278L22.9406 27.5115V35.9761H31.9512C36.064 35.9761 39.375 32.6651 39.375 28.5523C39.375 25.5252 37.5783 22.9375 34.9915 21.7796C40.0038 12.008 33.7098 6.16138 27.1113 6.02963Z" fill="#75B5FF"/>
<path id="path4201" d="M27.1113 6.02853C26.8598 6.02357 26.5838 6.03221 26.332 6.04337C20.5657 15.131 29.4773 21.778 34.9914 21.778C40.0038 12.0064 33.7097 6.16029 27.1113 6.02853Z" fill="#488BFF"/>
</g>
</g>
</svg>
