<svg width="32" height="32" viewBox="0 0 32 32" fill="none" xmlns="http://www.w3.org/2000/svg">
<path d="M17.2334 14.7334L11.5667 9.06668L13.4667 7.20002L17.2334 10.9667L24.8 3.43335L26.6667 5.30002L17.2334 14.7334ZM9.33337 24.6667L18.6 27.2L26.5334 24.7334C26.4223 24.5333 26.2609 24.3609 26.0494 24.216C25.8378 24.0711 25.5992 23.9991 25.3334 24H18.6C18 24 17.5223 23.9778 17.1667 23.9334C16.8112 23.8889 16.4445 23.8 16.0667 23.6667L12.9667 22.6334L13.7 20.0334L16.4 20.9334C16.7778 21.0445 17.2223 21.1334 17.7334 21.2C18.2445 21.2667 19 21.3111 20 21.3334C20 21.0889 19.928 20.8556 19.784 20.6334C19.64 20.4111 19.4676 20.2667 19.2667 20.2L11.4667 17.3334H9.33337V24.6667ZM1.33337 29.3334V14.6667H11.4667C11.6223 14.6667 11.7778 14.6836 11.9334 14.7174C12.0889 14.7511 12.2334 14.7898 12.3667 14.8334L20.2 17.7334C20.9334 18 21.528 18.4667 21.984 19.1334C22.44 19.8 22.6676 20.5334 22.6667 21.3334H25.3334C26.4445 21.3334 27.3889 21.7 28.1667 22.4334C28.9445 23.1667 29.3334 24.1334 29.3334 25.3334V26.6667L18.6667 30L9.33337 27.4V29.3334H1.33337ZM4.00004 26.6667H6.66671V17.3334H4.00004V26.6667Z" fill="#FFC761"/>
</svg>
