<svg width="32" height="32" viewBox="0 0 32 32" fill="none" xmlns="http://www.w3.org/2000/svg">
<path d="M18.1867 5.07996L16.5467 3.43996C16.0534 2.94663 15.3734 2.66663 14.6667 2.66663H13.3334V5.33329H14.6667L16.3067 6.97329L18.1867 5.07996ZM17.24 7.90662L19.1334 5.99996L21.96 8.85329L20.0667 10.7333L17.24 7.90662ZM5.33335 14.6666L6.97335 16.3066L5.08002 18.1866L3.45335 16.56C3.20002 16.3066 3.00002 16 2.86669 15.6933C2.73335 15.3733 2.66669 15.0133 2.66669 14.6666V13.3333H5.33335V14.6666ZM6.00002 19.1333L7.90669 17.24L10.7334 20.0666L8.85335 21.96L6.00002 19.1333ZM12.6267 25.7333L9.80002 22.9066L11.68 21.0133L14.5067 23.84L12.6267 25.7333ZM21.0134 11.68L23.84 14.5066L25.7333 12.6266L22.9067 9.79996L21.0134 11.68ZM24.7867 15.4533L26.6667 13.56L28.5467 15.44C28.8 15.6933 29 16 29.1334 16.3066C29.2667 16.6666 29.3333 16.9866 29.3333 17.3333C29.3333 18.04 29.0534 18.72 28.5467 19.2133L24.7867 15.4533ZM27.6 20.16L25.72 18.28L22.4667 21.5333L24.3467 23.4133L27.6 20.16ZM21.5333 22.4666L23.4133 24.3466L20.16 27.6L18.28 25.72L21.5333 22.4666ZM19.2134 28.5466L15.4534 24.7866L13.56 26.6666L15.4534 28.56C15.96 29.0533 16.6267 29.3333 17.3334 29.3333C18.04 29.3333 18.72 29.0533 19.2134 28.5466ZM5.33335 12H2.66669V7.99996H5.33335V12ZM2.66669 6.66663H5.33335V5.33329H6.66669V2.66663H5.33335C4.62669 2.66663 3.94669 2.94663 3.45335 3.45329C2.94669 3.94663 2.66669 4.62663 2.66669 5.33329V6.66663ZM8.00002 5.33329V2.66663H12V5.33329H8.00002ZM8.66669 10.6666C9.77335 10.6666 10.6667 9.77329 10.6667 8.66663C10.6667 7.55996 9.77335 6.66663 8.66669 6.66663C7.56002 6.66663 6.66669 7.55996 6.66669 8.66663C6.66669 9.77329 7.56002 10.6666 8.66669 10.6666Z" fill="#30C6EC"/>
</svg>
