<svg width="32" height="33" viewBox="0 0 32 33" fill="none" xmlns="http://www.w3.org/2000/svg">
<path d="M19.3334 24.7501C19.8889 24.7501 20.3614 24.5558 20.7507 24.1674C21.14 23.7789 21.3343 23.3065 21.3334 22.7501C21.3325 22.1936 21.1383 21.7216 20.7507 21.3341C20.3632 20.9465 19.8907 20.7518 19.3334 20.7501C18.776 20.7483 18.304 20.9429 17.9174 21.3341C17.5307 21.7252 17.336 22.1972 17.3334 22.7501C17.3307 23.3029 17.5254 23.7754 17.9174 24.1674C18.3094 24.5594 18.7814 24.7536 19.3334 24.7501ZM11.6667 23.7501C11.9334 24.0167 12.2445 24.1501 12.6 24.1501C12.9556 24.1501 13.2667 24.0167 13.5334 23.7501L20.3334 16.9501C20.6 16.6834 20.7334 16.3723 20.7334 16.0167C20.7334 15.6612 20.6 15.3501 20.3334 15.0834C20.0667 14.8167 19.7503 14.6834 19.384 14.6834C19.0178 14.6834 18.7009 14.8167 18.4334 15.0834L11.6667 21.8501C11.4 22.1167 11.2667 22.4336 11.2667 22.8007C11.2667 23.1678 11.4 23.4843 11.6667 23.7501ZM12.6667 18.0834C13.2223 18.0834 13.6947 17.8892 14.084 17.5007C14.4734 17.1123 14.6676 16.6398 14.6667 16.0834C14.6658 15.5269 14.4716 15.0549 14.084 14.6674C13.6965 14.2798 13.224 14.0852 12.6667 14.0834C12.1094 14.0816 11.6374 14.2763 11.2507 14.6674C10.864 15.0585 10.6694 15.5305 10.6667 16.0834C10.664 16.6363 10.8587 17.1087 11.2507 17.5007C11.6427 17.8927 12.1147 18.0869 12.6667 18.0834ZM16 30.0834C12.9556 30.0834 10.4169 29.0389 8.38404 26.9501C6.35115 24.8612 5.33426 22.2612 5.33337 19.1501C5.33337 17.7723 5.64448 16.3945 6.26671 15.0167C6.88893 13.6389 7.66671 12.3167 8.60004 11.0501C9.53337 9.78339 10.5445 8.5945 11.6334 7.48339C12.7223 6.37228 13.7334 5.40561 14.6667 4.58339C14.8445 4.40561 15.0503 4.27806 15.284 4.20072C15.5178 4.12339 15.7565 4.08428 16 4.08339C16.2436 4.0825 16.4827 4.12161 16.7174 4.20072C16.952 4.27983 17.1574 4.40739 17.3334 4.58339C18.2667 5.40561 19.2778 6.37228 20.3667 7.48339C21.4556 8.5945 22.4667 9.78339 23.4 11.0501C24.3334 12.3167 25.1111 13.6389 25.7334 15.0167C26.3556 16.3945 26.6667 17.7723 26.6667 19.1501C26.6667 22.2612 25.6503 24.8612 23.6174 26.9501C21.5845 29.0389 19.0454 30.0834 16 30.0834ZM16 27.4167C18.3112 27.4167 20.2223 26.6332 21.7334 25.0661C23.2445 23.4989 24 21.5269 24 19.1501C24 17.5278 23.3276 15.6945 21.9827 13.6501C20.6378 11.6056 18.6436 9.37228 16 6.95006C13.3556 9.37228 11.3614 11.6056 10.0174 13.6501C8.67337 15.6945 8.00093 17.5278 8.00004 19.1501C8.00004 21.5278 8.7556 23.5003 10.2667 25.0674C11.7778 26.6345 13.6889 27.4176 16 27.4167Z" fill="#B764FB"/>
</svg>
