<svg width="32" height="32" viewBox="0 0 32 32" fill="none" xmlns="http://www.w3.org/2000/svg">
<g clip-path="url(#clip0_1001_1869)">
<path d="M23.3333 22.4267L26.5866 24.3067L25.5866 26.04L21.3333 23.5867V18.6667H23.3333V22.4267ZM32 22.6667C32 27.8267 27.8266 32 22.6666 32C17.5066 32 13.3333 27.8267 13.3333 22.6667C13.3333 22.2134 13.3733 21.7734 13.44 21.3334H2.66663V5.33337H26.6666V14.24C29.8133 15.7467 32 18.9467 32 22.6667ZM14.24 18.6667C14.48 18.1867 14.7333 17.7334 15.04 17.2934C14.92 17.3334 14.8 17.3334 14.6666 17.3334C12.4533 17.3334 10.6666 15.5467 10.6666 13.3334C10.6666 11.12 12.4533 9.33337 14.6666 9.33337C16.88 9.33337 18.6666 11.12 18.6666 13.3334C18.6666 13.6667 18.6133 14 18.5333 14.3067C19.7866 13.6934 21.1866 13.3334 22.6666 13.3334C23.12 13.3334 23.56 13.3734 24 13.44V10.6667C23.2927 10.6667 22.6144 10.3858 22.1143 9.88566C21.6142 9.38556 21.3333 8.70728 21.3333 8.00004H7.99996C7.99996 9.48004 6.81329 10.6667 5.33329 10.6667V16C6.04054 16 6.71881 16.281 7.21891 16.7811C7.71901 17.2812 7.99996 17.9595 7.99996 18.6667H14.24ZM29.3333 22.6667C29.3333 18.9867 26.3466 16 22.6666 16C18.9866 16 16 18.9867 16 22.6667C16 26.3467 18.9866 29.3334 22.6666 29.3334C26.3466 29.3334 29.3333 26.3467 29.3333 22.6667Z" fill="#FC9064"/>
</g>
<defs>
<clipPath id="clip0_1001_1869">
<rect width="32" height="32" fill="white"/>
</clipPath>
</defs>
</svg>
